<svg xmlns="http://www.w3.org/2000/svg" xmlns:xlink="http://www.w3.org/1999/xlink" width="500" zoomAndPan="magnify" viewBox="0 0 375 374.999991" height="500" preserveAspectRatio="xMidYMid meet" version="1.0"><defs><g/><clipPath id="61a594439f"><path d="M 147 75.347656 L 229.453125 75.347656 L 229.453125 193 L 147 193 Z M 147 75.347656 " clip-rule="nonzero"/></clipPath></defs><g clip-path="url(#61a594439f)"><path fill="#00a848" d="M 148.496094 139.097656 C 148.414062 139.511719 148.320312 139.921875 148.25 140.339844 C 145.515625 156.347656 151.941406 173.5625 164.285156 184.050781 C 166.261719 185.730469 168.390625 187.246094 170.660156 188.546875 C 172.699219 189.714844 174.835938 190.710938 177.042969 191.515625 C 179.003906 192.230469 181.34375 192.75 183.0625 191.5625 C 184.277344 190.722656 184.855469 189.21875 185.132812 187.769531 C 185.824219 184.148438 185.042969 180.269531 183.003906 177.203125 C 181.03125 174.242188 177.953125 172.023438 176.519531 168.765625 C 175.421875 166.28125 175.410156 163.476562 175.414062 160.761719 C 175.417969 158.9375 175.421875 157.117188 175.425781 155.292969 C 175.425781 155.292969 175.421875 155.292969 175.421875 155.292969 L 175.457031 136.53125 C 175.472656 127.675781 175.492188 118.820312 175.507812 109.964844 C 175.507812 109.046875 175.640625 107.925781 176.488281 107.574219 C 177.878906 106.996094 178.753906 109.113281 178.78125 110.625 C 178.925781 117.890625 178.960938 125.152344 178.902344 132.421875 C 178.875 136.597656 178.824219 140.769531 178.730469 144.941406 C 178.691406 146.761719 179.371094 149.285156 181.171875 149.035156 C 182.660156 148.828125 183.023438 146.863281 183.019531 145.355469 C 182.988281 139.71875 182.964844 134.074219 182.945312 128.429688 C 182.921875 122.652344 182.890625 116.878906 182.867188 111.101562 C 182.863281 109.445312 183.730469 107.109375 185.285156 107.671875 C 186.28125 108.03125 186.449219 109.339844 186.441406 110.402344 C 186.429688 115.453125 186.402344 120.511719 186.378906 125.5625 C 186.355469 131.898438 186.332031 138.238281 186.304688 144.574219 C 186.296875 145.65625 186.304688 146.785156 186.800781 147.746094 C 187.292969 148.710938 188.445312 149.425781 189.464844 149.058594 C 190.753906 148.585938 190.972656 146.882812 190.972656 145.511719 C 190.976562 137.789062 190.980469 130.0625 190.980469 122.339844 C 190.988281 117.425781 190.992188 112.519531 190.992188 107.605469 C 192.042969 107.375 193.101562 108.152344 193.558594 109.125 C 194.015625 110.089844 194.015625 111.207031 194.003906 112.277344 C 193.980469 115.050781 193.953125 117.824219 193.929688 120.597656 C 193.855469 128.417969 193.785156 136.238281 193.714844 144.058594 C 193.703125 145.292969 193.710938 146.605469 194.335938 147.675781 C 194.96875 148.742188 196.460938 149.402344 197.496094 148.710938 C 198.421875 148.089844 198.519531 146.789062 198.519531 145.671875 C 198.546875 136.578125 198.492188 127.480469 198.347656 118.375 C 198.324219 116.765625 198.300781 115.152344 198.273438 113.535156 C 198.226562 111.066406 198.824219 107.800781 201.28125 107.546875 C 201.300781 110.742188 201.316406 113.941406 201.332031 117.140625 C 201.398438 130.316406 201.460938 143.492188 201.53125 156.667969 C 201.527344 156.667969 201.527344 156.667969 201.527344 156.667969 C 201.53125 157.644531 201.539062 158.621094 201.542969 159.597656 C 201.558594 162.644531 201.554688 165.792969 200.355469 168.597656 C 199.027344 171.703125 196.382812 174.039062 194.632812 176.929688 C 192.773438 180.003906 191.980469 183.707031 192.414062 187.273438 C 192.835938 190.714844 194.964844 192.367188 198.453125 191.703125 C 206.855469 190.109375 215.042969 182.820312 220.050781 176.246094 C 225.414062 169.203125 228.824219 160.617188 229.371094 151.757812 C 229.414062 151.050781 229.4375 150.339844 229.445312 149.628906 C 229.464844 147.789062 229.355469 145.957031 229.15625 144.132812 C 229.160156 144.132812 229.160156 144.132812 229.160156 144.132812 C 229.0625 143.234375 228.949219 142.335938 228.804688 141.449219 C 227.746094 134.992188 225.484375 128.710938 222.570312 122.828125 C 220.976562 119.597656 219.183594 116.472656 217.285156 113.414062 C 214.269531 108.570312 210.972656 103.898438 207.679688 99.242188 C 205.4375 96.066406 203.199219 92.898438 200.953125 89.726562 C 198.523438 86.289062 196.09375 82.851562 193.664062 79.414062 C 192.304688 77.488281 190.507812 75.34375 188.15625 75.519531 C 186.125 75.671875 184.691406 77.511719 183.53125 79.191406 C 177.660156 87.683594 171.789062 96.175781 165.917969 104.671875 C 165.757812 104.898438 165.601562 105.128906 165.441406 105.359375 C 165.441406 105.359375 165.441406 105.359375 165.4375 105.359375 C 158.222656 115.808594 150.957031 126.703125 148.5 139.097656 " fill-opacity="1" fill-rule="nonzero"/></g><g fill="#00a848" fill-opacity="1"><g transform="translate(-1.737066, 263.746286)"><g><path d="M 35.6875 0 L 26.4375 -13.25 C 26.050781 -13.207031 25.472656 -13.1875 24.703125 -13.1875 L 14.484375 -13.1875 L 14.484375 0 L 6.078125 0 L 6.078125 -45.265625 L 24.703125 -45.265625 C 28.617188 -45.265625 32.03125 -44.613281 34.9375 -43.3125 C 37.851562 -42.019531 40.085938 -40.164062 41.640625 -37.75 C 43.191406 -35.34375 43.96875 -32.476562 43.96875 -29.15625 C 43.96875 -25.75 43.132812 -22.816406 41.46875 -20.359375 C 39.8125 -17.910156 37.429688 -16.082031 34.328125 -14.875 L 44.734375 0 Z M 35.5 -29.15625 C 35.5 -32.039062 34.550781 -34.257812 32.65625 -35.8125 C 30.757812 -37.363281 27.976562 -38.140625 24.3125 -38.140625 L 14.484375 -38.140625 L 14.484375 -20.109375 L 24.3125 -20.109375 C 27.976562 -20.109375 30.757812 -20.894531 32.65625 -22.46875 C 34.550781 -24.039062 35.5 -26.269531 35.5 -29.15625 Z M 35.5 -29.15625 "/></g></g></g><g fill="#00a848" fill-opacity="1"><g transform="translate(41.830208, 263.746286)"><g><path d="M 37.765625 -17.0625 C 37.765625 -16.507812 37.71875 -15.710938 37.625 -14.671875 L 10.53125 -14.671875 C 11.007812 -12.128906 12.25 -10.113281 14.25 -8.625 C 16.257812 -7.144531 18.75 -6.40625 21.71875 -6.40625 C 25.519531 -6.40625 28.644531 -7.65625 31.09375 -10.15625 L 35.4375 -5.171875 C 33.882812 -3.316406 31.921875 -1.914062 29.546875 -0.96875 C 27.171875 -0.0195312 24.5 0.453125 21.53125 0.453125 C 17.738281 0.453125 14.394531 -0.300781 11.5 -1.8125 C 8.613281 -3.320312 6.382812 -5.421875 4.8125 -8.109375 C 3.238281 -10.804688 2.453125 -13.859375 2.453125 -17.265625 C 2.453125 -20.628906 3.21875 -23.65625 4.75 -26.34375 C 6.28125 -29.039062 8.398438 -31.144531 11.109375 -32.65625 C 13.828125 -34.164062 16.890625 -34.921875 20.296875 -34.921875 C 23.660156 -34.921875 26.664062 -34.175781 29.3125 -32.6875 C 31.96875 -31.195312 34.039062 -29.101562 35.53125 -26.40625 C 37.019531 -23.71875 37.765625 -20.601562 37.765625 -17.0625 Z M 20.296875 -28.453125 C 17.710938 -28.453125 15.523438 -27.6875 13.734375 -26.15625 C 11.953125 -24.625 10.863281 -22.585938 10.46875 -20.046875 L 30.0625 -20.046875 C 29.71875 -22.546875 28.660156 -24.570312 26.890625 -26.125 C 25.128906 -27.675781 22.929688 -28.453125 20.296875 -28.453125 Z M 20.296875 -28.453125 "/></g></g></g><g fill="#00a848" fill-opacity="1"><g transform="translate(78.351641, 263.746286)"><g><path d="M 15.96875 0.453125 C 13.164062 0.453125 10.425781 0.0859375 7.75 -0.640625 C 5.082031 -1.378906 2.953125 -2.304688 1.359375 -3.421875 L 4.46875 -9.5625 C 6.007812 -8.53125 7.867188 -7.703125 10.046875 -7.078125 C 12.222656 -6.453125 14.367188 -6.140625 16.484375 -6.140625 C 21.316406 -6.140625 23.734375 -7.410156 23.734375 -9.953125 C 23.734375 -11.160156 23.117188 -12 21.890625 -12.46875 C 20.660156 -12.945312 18.6875 -13.40625 15.96875 -13.84375 C 13.125 -14.269531 10.804688 -14.765625 9.015625 -15.328125 C 7.234375 -15.890625 5.679688 -16.867188 4.359375 -18.265625 C 3.046875 -19.660156 2.390625 -21.609375 2.390625 -24.109375 C 2.390625 -27.390625 3.757812 -30.007812 6.5 -31.96875 C 9.238281 -33.9375 12.9375 -34.921875 17.59375 -34.921875 C 19.957031 -34.921875 22.320312 -34.648438 24.6875 -34.109375 C 27.0625 -33.566406 29.003906 -32.84375 30.515625 -31.9375 L 27.421875 -25.796875 C 24.484375 -27.523438 21.179688 -28.390625 17.515625 -28.390625 C 15.148438 -28.390625 13.351562 -28.03125 12.125 -27.3125 C 10.894531 -26.601562 10.28125 -25.664062 10.28125 -24.5 C 10.28125 -23.207031 10.9375 -22.289062 12.25 -21.75 C 13.5625 -21.21875 15.597656 -20.710938 18.359375 -20.234375 C 21.117188 -19.804688 23.378906 -19.3125 25.140625 -18.75 C 26.910156 -18.1875 28.429688 -17.238281 29.703125 -15.90625 C 30.972656 -14.570312 31.609375 -12.675781 31.609375 -10.21875 C 31.609375 -6.976562 30.207031 -4.390625 27.40625 -2.453125 C 24.613281 -0.515625 20.800781 0.453125 15.96875 0.453125 Z M 15.96875 0.453125 "/></g></g></g><g fill="#00a848" fill-opacity="1"><g transform="translate(107.956515, 263.746286)"><g><path d="M 21.140625 0.453125 C 17.566406 0.453125 14.351562 -0.300781 11.5 -1.8125 C 8.65625 -3.320312 6.4375 -5.421875 4.84375 -8.109375 C 3.25 -10.804688 2.453125 -13.859375 2.453125 -17.265625 C 2.453125 -20.671875 3.25 -23.707031 4.84375 -26.375 C 6.4375 -29.050781 8.644531 -31.144531 11.46875 -32.65625 C 14.300781 -34.164062 17.523438 -34.921875 21.140625 -34.921875 C 24.546875 -34.921875 27.53125 -34.226562 30.09375 -32.84375 C 32.65625 -31.46875 34.585938 -29.484375 35.890625 -26.890625 L 29.671875 -23.28125 C 28.679688 -24.875 27.441406 -26.066406 25.953125 -26.859375 C 24.472656 -27.660156 22.847656 -28.0625 21.078125 -28.0625 C 18.054688 -28.0625 15.554688 -27.078125 13.578125 -25.109375 C 11.597656 -23.148438 10.609375 -20.535156 10.609375 -17.265625 C 10.609375 -13.984375 11.585938 -11.363281 13.546875 -9.40625 C 15.503906 -7.445312 18.015625 -6.46875 21.078125 -6.46875 C 22.847656 -6.46875 24.472656 -6.863281 25.953125 -7.65625 C 27.441406 -8.457031 28.679688 -9.65625 29.671875 -11.25 L 35.890625 -7.625 C 34.546875 -5.039062 32.59375 -3.046875 30.03125 -1.640625 C 27.46875 -0.242188 24.503906 0.453125 21.140625 0.453125 Z M 21.140625 0.453125 "/></g></g></g><g fill="#00a848" fill-opacity="1"><g transform="translate(141.827683, 263.746286)"><g><path d="M 38.734375 -34.53125 L 38.734375 0 L 31.03125 0 L 31.03125 -4.390625 C 29.738281 -2.835938 28.125 -1.640625 26.1875 -0.796875 C 24.25 0.0351562 22.160156 0.453125 19.921875 0.453125 C 15.304688 0.453125 11.671875 -0.828125 9.015625 -3.390625 C 6.367188 -5.953125 5.046875 -9.757812 5.046875 -14.8125 L 5.046875 -34.53125 L 13.125 -34.53125 L 13.125 -15.90625 C 13.125 -12.800781 13.820312 -10.484375 15.21875 -8.953125 C 16.625 -7.421875 18.617188 -6.65625 21.203125 -6.65625 C 24.097656 -6.65625 26.394531 -7.550781 28.09375 -9.34375 C 29.789062 -11.132812 30.640625 -13.707031 30.640625 -17.0625 L 30.640625 -34.53125 Z M 38.734375 -34.53125 "/></g></g></g><g fill="#00a848" fill-opacity="1"><g transform="translate(182.162919, 263.746286)"><g><path d="M 37.765625 -17.0625 C 37.765625 -16.507812 37.71875 -15.710938 37.625 -14.671875 L 10.53125 -14.671875 C 11.007812 -12.128906 12.25 -10.113281 14.25 -8.625 C 16.257812 -7.144531 18.75 -6.40625 21.71875 -6.40625 C 25.519531 -6.40625 28.644531 -7.65625 31.09375 -10.15625 L 35.4375 -5.171875 C 33.882812 -3.316406 31.921875 -1.914062 29.546875 -0.96875 C 27.171875 -0.0195312 24.5 0.453125 21.53125 0.453125 C 17.738281 0.453125 14.394531 -0.300781 11.5 -1.8125 C 8.613281 -3.320312 6.382812 -5.421875 4.8125 -8.109375 C 3.238281 -10.804688 2.453125 -13.859375 2.453125 -17.265625 C 2.453125 -20.628906 3.21875 -23.65625 4.75 -26.34375 C 6.28125 -29.039062 8.398438 -31.144531 11.109375 -32.65625 C 13.828125 -34.164062 16.890625 -34.921875 20.296875 -34.921875 C 23.660156 -34.921875 26.664062 -34.175781 29.3125 -32.6875 C 31.96875 -31.195312 34.039062 -29.101562 35.53125 -26.40625 C 37.019531 -23.71875 37.765625 -20.601562 37.765625 -17.0625 Z M 20.296875 -28.453125 C 17.710938 -28.453125 15.523438 -27.6875 13.734375 -26.15625 C 11.953125 -24.625 10.863281 -22.585938 10.46875 -20.046875 L 30.0625 -20.046875 C 29.71875 -22.546875 28.660156 -24.570312 26.890625 -26.125 C 25.128906 -27.675781 22.929688 -28.453125 20.296875 -28.453125 Z M 20.296875 -28.453125 "/></g></g></g><g fill="#ffffff" fill-opacity="1"><g transform="translate(218.69261, 263.746286)"><g><path d="M 14.484375 -38.21875 L 14.484375 -24.4375 L 36.34375 -24.4375 L 36.34375 -17.328125 L 14.484375 -17.328125 L 14.484375 0 L 6.078125 0 L 6.078125 -45.265625 L 39.109375 -45.265625 L 39.109375 -38.21875 Z M 14.484375 -38.21875 "/></g></g></g><g fill="#ffffff" fill-opacity="1"><g transform="translate(256.183656, 263.746286)"><g><path d="M 20.8125 0.453125 C 17.320312 0.453125 14.175781 -0.300781 11.375 -1.8125 C 8.570312 -3.320312 6.382812 -5.421875 4.8125 -8.109375 C 3.238281 -10.804688 2.453125 -13.859375 2.453125 -17.265625 C 2.453125 -20.671875 3.238281 -23.707031 4.8125 -26.375 C 6.382812 -29.050781 8.570312 -31.144531 11.375 -32.65625 C 14.175781 -34.164062 17.320312 -34.921875 20.8125 -34.921875 C 24.351562 -34.921875 27.523438 -34.164062 30.328125 -32.65625 C 33.128906 -31.144531 35.316406 -29.050781 36.890625 -26.375 C 38.460938 -23.707031 39.25 -20.671875 39.25 -17.265625 C 39.25 -13.859375 38.460938 -10.804688 36.890625 -8.109375 C 35.316406 -5.421875 33.128906 -3.320312 30.328125 -1.8125 C 27.523438 -0.300781 24.351562 0.453125 20.8125 0.453125 Z M 20.8125 -6.46875 C 23.789062 -6.46875 26.25 -7.457031 28.1875 -9.4375 C 30.125 -11.414062 31.09375 -14.023438 31.09375 -17.265625 C 31.09375 -20.492188 30.125 -23.097656 28.1875 -25.078125 C 26.25 -27.066406 23.789062 -28.0625 20.8125 -28.0625 C 17.84375 -28.0625 15.398438 -27.066406 13.484375 -25.078125 C 11.566406 -23.097656 10.609375 -20.492188 10.609375 -17.265625 C 10.609375 -14.023438 11.566406 -11.414062 13.484375 -9.4375 C 15.398438 -7.457031 17.84375 -6.46875 20.8125 -6.46875 Z M 20.8125 -6.46875 "/></g></g></g><g fill="#ffffff" fill-opacity="1"><g transform="translate(294.191826, 263.746286)"><g><path d="M 20.8125 0.453125 C 17.320312 0.453125 14.175781 -0.300781 11.375 -1.8125 C 8.570312 -3.320312 6.382812 -5.421875 4.8125 -8.109375 C 3.238281 -10.804688 2.453125 -13.859375 2.453125 -17.265625 C 2.453125 -20.671875 3.238281 -23.707031 4.8125 -26.375 C 6.382812 -29.050781 8.570312 -31.144531 11.375 -32.65625 C 14.175781 -34.164062 17.320312 -34.921875 20.8125 -34.921875 C 24.351562 -34.921875 27.523438 -34.164062 30.328125 -32.65625 C 33.128906 -31.144531 35.316406 -29.050781 36.890625 -26.375 C 38.460938 -23.707031 39.25 -20.671875 39.25 -17.265625 C 39.25 -13.859375 38.460938 -10.804688 36.890625 -8.109375 C 35.316406 -5.421875 33.128906 -3.320312 30.328125 -1.8125 C 27.523438 -0.300781 24.351562 0.453125 20.8125 0.453125 Z M 20.8125 -6.46875 C 23.789062 -6.46875 26.25 -7.457031 28.1875 -9.4375 C 30.125 -11.414062 31.09375 -14.023438 31.09375 -17.265625 C 31.09375 -20.492188 30.125 -23.097656 28.1875 -25.078125 C 26.25 -27.066406 23.789062 -28.0625 20.8125 -28.0625 C 17.84375 -28.0625 15.398438 -27.066406 13.484375 -25.078125 C 11.566406 -23.097656 10.609375 -20.492188 10.609375 -17.265625 C 10.609375 -14.023438 11.566406 -11.414062 13.484375 -9.4375 C 15.398438 -7.457031 17.84375 -6.46875 20.8125 -6.46875 Z M 20.8125 -6.46875 "/></g></g></g><g fill="#ffffff" fill-opacity="1"><g transform="translate(332.199992, 263.746286)"><g><path d="M 39.109375 -47.96875 L 39.109375 0 L 31.359375 0 L 31.359375 -4.46875 C 30.023438 -2.820312 28.375 -1.585938 26.40625 -0.765625 C 24.445312 0.046875 22.285156 0.453125 19.921875 0.453125 C 16.597656 0.453125 13.609375 -0.273438 10.953125 -1.734375 C 8.304688 -3.203125 6.226562 -5.285156 4.71875 -7.984375 C 3.207031 -10.679688 2.453125 -13.773438 2.453125 -17.265625 C 2.453125 -20.753906 3.207031 -23.832031 4.71875 -26.5 C 6.226562 -29.175781 8.304688 -31.25 10.953125 -32.71875 C 13.609375 -34.1875 16.597656 -34.921875 19.921875 -34.921875 C 22.203125 -34.921875 24.289062 -34.53125 26.1875 -33.75 C 28.082031 -32.976562 29.695312 -31.816406 31.03125 -30.265625 L 31.03125 -47.96875 Z M 20.890625 -6.46875 C 22.828125 -6.46875 24.570312 -6.90625 26.125 -7.78125 C 27.675781 -8.664062 28.90625 -9.925781 29.8125 -11.5625 C 30.71875 -13.207031 31.171875 -15.109375 31.171875 -17.265625 C 31.171875 -19.421875 30.71875 -21.316406 29.8125 -22.953125 C 28.90625 -24.585938 27.675781 -25.847656 26.125 -26.734375 C 24.570312 -27.617188 22.828125 -28.0625 20.890625 -28.0625 C 18.941406 -28.0625 17.191406 -27.617188 15.640625 -26.734375 C 14.085938 -25.847656 12.859375 -24.585938 11.953125 -22.953125 C 11.054688 -21.316406 10.609375 -19.421875 10.609375 -17.265625 C 10.609375 -15.109375 11.054688 -13.207031 11.953125 -11.5625 C 12.859375 -9.925781 14.085938 -8.664062 15.640625 -7.78125 C 17.191406 -6.90625 18.941406 -6.46875 20.890625 -6.46875 Z M 20.890625 -6.46875 "/></g></g></g><g fill="#ffffff" fill-opacity="1"><g transform="translate(8.380924, 295.449708)"><g><path d="M 3.46875 -10.375 L 3.46875 -6.25 L 9.421875 -6.25 L 9.421875 -4.796875 L 3.46875 -4.796875 L 3.46875 0 L 1.78125 0 L 1.78125 -11.859375 L 10.140625 -11.859375 L 10.140625 -10.375 Z M 3.46875 -10.375 "/></g></g></g><g fill="#ffffff" fill-opacity="1"><g transform="translate(20.895656, 295.449708)"><g><path d="M 7.125 0.140625 C 5.925781 0.140625 4.847656 -0.117188 3.890625 -0.640625 C 2.929688 -1.171875 2.175781 -1.898438 1.625 -2.828125 C 1.082031 -3.753906 0.8125 -4.785156 0.8125 -5.921875 C 0.8125 -7.066406 1.082031 -8.101562 1.625 -9.03125 C 2.175781 -9.957031 2.929688 -10.679688 3.890625 -11.203125 C 4.847656 -11.722656 5.925781 -11.984375 7.125 -11.984375 C 8.3125 -11.984375 9.382812 -11.722656 10.34375 -11.203125 C 11.300781 -10.679688 12.050781 -9.957031 12.59375 -9.03125 C 13.144531 -8.113281 13.421875 -7.078125 13.421875 -5.921875 C 13.421875 -4.773438 13.144531 -3.738281 12.59375 -2.8125 C 12.050781 -1.894531 11.300781 -1.171875 10.34375 -0.640625 C 9.382812 -0.117188 8.3125 0.140625 7.125 0.140625 Z M 7.125 -1.375 C 8 -1.375 8.78125 -1.570312 9.46875 -1.96875 C 10.164062 -2.363281 10.710938 -2.90625 11.109375 -3.59375 C 11.515625 -4.289062 11.71875 -5.066406 11.71875 -5.921875 C 11.71875 -6.785156 11.515625 -7.5625 11.109375 -8.25 C 10.710938 -8.945312 10.164062 -9.492188 9.46875 -9.890625 C 8.78125 -10.285156 8 -10.484375 7.125 -10.484375 C 6.257812 -10.484375 5.472656 -10.285156 4.765625 -9.890625 C 4.054688 -9.492188 3.5 -8.945312 3.09375 -8.25 C 2.695312 -7.5625 2.5 -6.785156 2.5 -5.921875 C 2.5 -5.066406 2.695312 -4.289062 3.09375 -3.59375 C 3.5 -2.90625 4.054688 -2.363281 4.765625 -1.96875 C 5.472656 -1.570312 6.257812 -1.375 7.125 -1.375 Z M 7.125 -1.375 "/></g></g></g><g fill="#ffffff" fill-opacity="1"><g transform="translate(36.881792, 295.449708)"><g><path d="M 7.125 0.140625 C 5.925781 0.140625 4.847656 -0.117188 3.890625 -0.640625 C 2.929688 -1.171875 2.175781 -1.898438 1.625 -2.828125 C 1.082031 -3.753906 0.8125 -4.785156 0.8125 -5.921875 C 0.8125 -7.066406 1.082031 -8.101562 1.625 -9.03125 C 2.175781 -9.957031 2.929688 -10.679688 3.890625 -11.203125 C 4.847656 -11.722656 5.925781 -11.984375 7.125 -11.984375 C 8.3125 -11.984375 9.382812 -11.722656 10.34375 -11.203125 C 11.300781 -10.679688 12.050781 -9.957031 12.59375 -9.03125 C 13.144531 -8.113281 13.421875 -7.078125 13.421875 -5.921875 C 13.421875 -4.773438 13.144531 -3.738281 12.59375 -2.8125 C 12.050781 -1.894531 11.300781 -1.171875 10.34375 -0.640625 C 9.382812 -0.117188 8.3125 0.140625 7.125 0.140625 Z M 7.125 -1.375 C 8 -1.375 8.78125 -1.570312 9.46875 -1.96875 C 10.164062 -2.363281 10.710938 -2.90625 11.109375 -3.59375 C 11.515625 -4.289062 11.71875 -5.066406 11.71875 -5.921875 C 11.71875 -6.785156 11.515625 -7.5625 11.109375 -8.25 C 10.710938 -8.945312 10.164062 -9.492188 9.46875 -9.890625 C 8.78125 -10.285156 8 -10.484375 7.125 -10.484375 C 6.257812 -10.484375 5.472656 -10.285156 4.765625 -9.890625 C 4.054688 -9.492188 3.5 -8.945312 3.09375 -8.25 C 2.695312 -7.5625 2.5 -6.785156 2.5 -5.921875 C 2.5 -5.066406 2.695312 -4.289062 3.09375 -3.59375 C 3.5 -2.90625 4.054688 -2.363281 4.765625 -1.96875 C 5.472656 -1.570312 6.257812 -1.375 7.125 -1.375 Z M 7.125 -1.375 "/></g></g></g><g fill="#ffffff" fill-opacity="1"><g transform="translate(52.867929, 295.449708)"><g><path d="M 1.78125 -11.859375 L 6.78125 -11.859375 C 8.03125 -11.859375 9.140625 -11.609375 10.109375 -11.109375 C 11.078125 -10.609375 11.828125 -9.910156 12.359375 -9.015625 C 12.898438 -8.117188 13.171875 -7.085938 13.171875 -5.921875 C 13.171875 -4.765625 12.898438 -3.734375 12.359375 -2.828125 C 11.828125 -1.929688 11.078125 -1.234375 10.109375 -0.734375 C 9.140625 -0.242188 8.03125 0 6.78125 0 L 1.78125 0 Z M 6.671875 -1.46875 C 7.628906 -1.46875 8.472656 -1.65625 9.203125 -2.03125 C 9.929688 -2.40625 10.492188 -2.925781 10.890625 -3.59375 C 11.285156 -4.269531 11.484375 -5.046875 11.484375 -5.921875 C 11.484375 -6.804688 11.285156 -7.582031 10.890625 -8.25 C 10.492188 -8.925781 9.929688 -9.445312 9.203125 -9.8125 C 8.472656 -10.1875 7.628906 -10.375 6.671875 -10.375 L 3.46875 -10.375 L 3.46875 -1.46875 Z M 6.671875 -1.46875 "/></g></g></g><g fill="#ffffff" fill-opacity="1"><g transform="translate(68.616989, 295.449708)"><g/></g></g><g fill="#ffffff" fill-opacity="1"><g transform="translate(74.93399, 295.449708)"><g><path d="M 9.703125 0 L 7.140625 -3.640625 C 6.828125 -3.617188 6.582031 -3.609375 6.40625 -3.609375 L 3.46875 -3.609375 L 3.46875 0 L 1.78125 0 L 1.78125 -11.859375 L 6.40625 -11.859375 C 7.9375 -11.859375 9.140625 -11.488281 10.015625 -10.75 C 10.898438 -10.019531 11.34375 -9.007812 11.34375 -7.71875 C 11.34375 -6.800781 11.117188 -6.019531 10.671875 -5.375 C 10.222656 -4.738281 9.578125 -4.273438 8.734375 -3.984375 L 11.546875 0 Z M 6.34375 -5.046875 C 7.414062 -5.046875 8.234375 -5.273438 8.796875 -5.734375 C 9.367188 -6.203125 9.65625 -6.863281 9.65625 -7.71875 C 9.65625 -8.582031 9.367188 -9.238281 8.796875 -9.6875 C 8.234375 -10.144531 7.414062 -10.375 6.34375 -10.375 L 3.46875 -10.375 L 3.46875 -5.046875 Z M 6.34375 -5.046875 "/></g></g></g><g fill="#ffffff" fill-opacity="1"><g transform="translate(89.006617, 295.449708)"><g><path d="M 10.375 -1.46875 L 10.375 0 L 1.78125 0 L 1.78125 -11.859375 L 10.140625 -11.859375 L 10.140625 -10.375 L 3.46875 -10.375 L 3.46875 -6.734375 L 9.421875 -6.734375 L 9.421875 -5.296875 L 3.46875 -5.296875 L 3.46875 -1.46875 Z M 10.375 -1.46875 "/></g></g></g><g fill="#ffffff" fill-opacity="1"><g transform="translate(102.114027, 295.449708)"><g><path d="M 1.78125 -11.859375 L 6.78125 -11.859375 C 8.03125 -11.859375 9.140625 -11.609375 10.109375 -11.109375 C 11.078125 -10.609375 11.828125 -9.910156 12.359375 -9.015625 C 12.898438 -8.117188 13.171875 -7.085938 13.171875 -5.921875 C 13.171875 -4.765625 12.898438 -3.734375 12.359375 -2.828125 C 11.828125 -1.929688 11.078125 -1.234375 10.109375 -0.734375 C 9.140625 -0.242188 8.03125 0 6.78125 0 L 1.78125 0 Z M 6.671875 -1.46875 C 7.628906 -1.46875 8.472656 -1.65625 9.203125 -2.03125 C 9.929688 -2.40625 10.492188 -2.925781 10.890625 -3.59375 C 11.285156 -4.269531 11.484375 -5.046875 11.484375 -5.921875 C 11.484375 -6.804688 11.285156 -7.582031 10.890625 -8.25 C 10.492188 -8.925781 9.929688 -9.445312 9.203125 -9.8125 C 8.472656 -10.1875 7.628906 -10.375 6.671875 -10.375 L 3.46875 -10.375 L 3.46875 -1.46875 Z M 6.671875 -1.46875 "/></g></g></g><g fill="#ffffff" fill-opacity="1"><g transform="translate(117.863088, 295.449708)"><g><path d="M 1.78125 -11.859375 L 3.46875 -11.859375 L 3.46875 0 L 1.78125 0 Z M 1.78125 -11.859375 "/></g></g></g><g fill="#ffffff" fill-opacity="1"><g transform="translate(124.874367, 295.449708)"><g><path d="M 5.234375 0.140625 C 4.335938 0.140625 3.472656 0.00390625 2.640625 -0.265625 C 1.816406 -0.546875 1.164062 -0.910156 0.6875 -1.359375 L 1.328125 -2.671875 C 1.773438 -2.265625 2.347656 -1.929688 3.046875 -1.671875 C 3.753906 -1.421875 4.484375 -1.296875 5.234375 -1.296875 C 6.210938 -1.296875 6.941406 -1.460938 7.421875 -1.796875 C 7.910156 -2.128906 8.15625 -2.578125 8.15625 -3.140625 C 8.15625 -3.546875 8.023438 -3.875 7.765625 -4.125 C 7.503906 -4.375 7.175781 -4.566406 6.78125 -4.703125 C 6.394531 -4.835938 5.84375 -4.992188 5.125 -5.171875 C 4.238281 -5.378906 3.519531 -5.585938 2.96875 -5.796875 C 2.425781 -6.015625 1.957031 -6.347656 1.5625 -6.796875 C 1.175781 -7.242188 0.984375 -7.847656 0.984375 -8.609375 C 0.984375 -9.234375 1.148438 -9.800781 1.484375 -10.3125 C 1.816406 -10.820312 2.320312 -11.226562 3 -11.53125 C 3.675781 -11.832031 4.515625 -11.984375 5.515625 -11.984375 C 6.222656 -11.984375 6.914062 -11.894531 7.59375 -11.71875 C 8.269531 -11.539062 8.847656 -11.28125 9.328125 -10.9375 L 8.78125 -9.59375 C 8.28125 -9.90625 7.742188 -10.140625 7.171875 -10.296875 C 6.609375 -10.460938 6.054688 -10.546875 5.515625 -10.546875 C 4.554688 -10.546875 3.835938 -10.367188 3.359375 -10.015625 C 2.878906 -9.671875 2.640625 -9.222656 2.640625 -8.671875 C 2.640625 -8.265625 2.773438 -7.929688 3.046875 -7.671875 C 3.316406 -7.421875 3.648438 -7.222656 4.046875 -7.078125 C 4.453125 -6.941406 5 -6.796875 5.6875 -6.640625 C 6.582031 -6.421875 7.300781 -6.203125 7.84375 -5.984375 C 8.382812 -5.773438 8.847656 -5.453125 9.234375 -5.015625 C 9.628906 -4.578125 9.828125 -3.984375 9.828125 -3.234375 C 9.828125 -2.609375 9.65625 -2.039062 9.3125 -1.53125 C 8.976562 -1.019531 8.460938 -0.613281 7.765625 -0.3125 C 7.078125 -0.0078125 6.234375 0.140625 5.234375 0.140625 Z M 5.234375 0.140625 "/></g></g></g><g fill="#ffffff" fill-opacity="1"><g transform="translate(137.152023, 295.449708)"><g><path d="M 4.125 -10.375 L 0.0625 -10.375 L 0.0625 -11.859375 L 9.875 -11.859375 L 9.875 -10.375 L 5.8125 -10.375 L 5.8125 0 L 4.125 0 Z M 4.125 -10.375 "/></g></g></g><g fill="#ffffff" fill-opacity="1"><g transform="translate(148.853938, 295.449708)"><g><path d="M 9.703125 0 L 7.140625 -3.640625 C 6.828125 -3.617188 6.582031 -3.609375 6.40625 -3.609375 L 3.46875 -3.609375 L 3.46875 0 L 1.78125 0 L 1.78125 -11.859375 L 6.40625 -11.859375 C 7.9375 -11.859375 9.140625 -11.488281 10.015625 -10.75 C 10.898438 -10.019531 11.34375 -9.007812 11.34375 -7.71875 C 11.34375 -6.800781 11.117188 -6.019531 10.671875 -5.375 C 10.222656 -4.738281 9.578125 -4.273438 8.734375 -3.984375 L 11.546875 0 Z M 6.34375 -5.046875 C 7.414062 -5.046875 8.234375 -5.273438 8.796875 -5.734375 C 9.367188 -6.203125 9.65625 -6.863281 9.65625 -7.71875 C 9.65625 -8.582031 9.367188 -9.238281 8.796875 -9.6875 C 8.234375 -10.144531 7.414062 -10.375 6.34375 -10.375 L 3.46875 -10.375 L 3.46875 -5.046875 Z M 6.34375 -5.046875 "/></g></g></g><g fill="#ffffff" fill-opacity="1"><g transform="translate(162.926565, 295.449708)"><g><path d="M 1.78125 -11.859375 L 3.46875 -11.859375 L 3.46875 0 L 1.78125 0 Z M 1.78125 -11.859375 "/></g></g></g><g fill="#ffffff" fill-opacity="1"><g transform="translate(169.937844, 295.449708)"><g><path d="M 9.75 -6.140625 C 10.445312 -5.953125 10.988281 -5.609375 11.375 -5.109375 C 11.769531 -4.609375 11.96875 -3.972656 11.96875 -3.203125 C 11.96875 -2.171875 11.582031 -1.378906 10.8125 -0.828125 C 10.039062 -0.273438 8.914062 0 7.4375 0 L 1.78125 0 L 1.78125 -11.859375 L 7.09375 -11.859375 C 8.445312 -11.859375 9.492188 -11.585938 10.234375 -11.046875 C 10.972656 -10.503906 11.34375 -9.753906 11.34375 -8.796875 C 11.34375 -8.171875 11.195312 -7.628906 10.90625 -7.171875 C 10.625 -6.722656 10.238281 -6.378906 9.75 -6.140625 Z M 3.46875 -10.484375 L 3.46875 -6.6875 L 6.9375 -6.6875 C 7.8125 -6.6875 8.484375 -6.847656 8.953125 -7.171875 C 9.421875 -7.492188 9.65625 -7.96875 9.65625 -8.59375 C 9.65625 -9.207031 9.421875 -9.675781 8.953125 -10 C 8.484375 -10.320312 7.8125 -10.484375 6.9375 -10.484375 Z M 7.375 -1.375 C 8.332031 -1.375 9.050781 -1.53125 9.53125 -1.84375 C 10.019531 -2.164062 10.265625 -2.664062 10.265625 -3.34375 C 10.265625 -4.65625 9.300781 -5.3125 7.375 -5.3125 L 3.46875 -5.3125 L 3.46875 -1.375 Z M 7.375 -1.375 "/></g></g></g><g fill="#ffffff" fill-opacity="1"><g transform="translate(184.518475, 295.449708)"><g><path d="M 6.6875 0.140625 C 5.101562 0.140625 3.867188 -0.3125 2.984375 -1.21875 C 2.109375 -2.125 1.671875 -3.421875 1.671875 -5.109375 L 1.671875 -11.859375 L 3.375 -11.859375 L 3.375 -5.1875 C 3.375 -2.644531 4.484375 -1.375 6.703125 -1.375 C 7.785156 -1.375 8.613281 -1.6875 9.1875 -2.3125 C 9.769531 -2.9375 10.0625 -3.894531 10.0625 -5.1875 L 10.0625 -11.859375 L 11.703125 -11.859375 L 11.703125 -5.109375 C 11.703125 -3.410156 11.257812 -2.109375 10.375 -1.203125 C 9.5 -0.304688 8.269531 0.140625 6.6875 0.140625 Z M 6.6875 0.140625 "/></g></g></g><g fill="#ffffff" fill-opacity="1"><g transform="translate(199.674857, 295.449708)"><g><path d="M 4.125 -10.375 L 0.0625 -10.375 L 0.0625 -11.859375 L 9.875 -11.859375 L 9.875 -10.375 L 5.8125 -10.375 L 5.8125 0 L 4.125 0 Z M 4.125 -10.375 "/></g></g></g><g fill="#ffffff" fill-opacity="1"><g transform="translate(211.376761, 295.449708)"><g><path d="M 1.78125 -11.859375 L 3.46875 -11.859375 L 3.46875 0 L 1.78125 0 Z M 1.78125 -11.859375 "/></g></g></g><g fill="#ffffff" fill-opacity="1"><g transform="translate(218.388052, 295.449708)"><g><path d="M 7.125 0.140625 C 5.925781 0.140625 4.847656 -0.117188 3.890625 -0.640625 C 2.929688 -1.171875 2.175781 -1.898438 1.625 -2.828125 C 1.082031 -3.753906 0.8125 -4.785156 0.8125 -5.921875 C 0.8125 -7.066406 1.082031 -8.101562 1.625 -9.03125 C 2.175781 -9.957031 2.929688 -10.679688 3.890625 -11.203125 C 4.847656 -11.722656 5.925781 -11.984375 7.125 -11.984375 C 8.3125 -11.984375 9.382812 -11.722656 10.34375 -11.203125 C 11.300781 -10.679688 12.050781 -9.957031 12.59375 -9.03125 C 13.144531 -8.113281 13.421875 -7.078125 13.421875 -5.921875 C 13.421875 -4.773438 13.144531 -3.738281 12.59375 -2.8125 C 12.050781 -1.894531 11.300781 -1.171875 10.34375 -0.640625 C 9.382812 -0.117188 8.3125 0.140625 7.125 0.140625 Z M 7.125 -1.375 C 8 -1.375 8.78125 -1.570312 9.46875 -1.96875 C 10.164062 -2.363281 10.710938 -2.90625 11.109375 -3.59375 C 11.515625 -4.289062 11.71875 -5.066406 11.71875 -5.921875 C 11.71875 -6.785156 11.515625 -7.5625 11.109375 -8.25 C 10.710938 -8.945312 10.164062 -9.492188 9.46875 -9.890625 C 8.78125 -10.285156 8 -10.484375 7.125 -10.484375 C 6.257812 -10.484375 5.472656 -10.285156 4.765625 -9.890625 C 4.054688 -9.492188 3.5 -8.945312 3.09375 -8.25 C 2.695312 -7.5625 2.5 -6.785156 2.5 -5.921875 C 2.5 -5.066406 2.695312 -4.289062 3.09375 -3.59375 C 3.5 -2.90625 4.054688 -2.363281 4.765625 -1.96875 C 5.472656 -1.570312 6.257812 -1.375 7.125 -1.375 Z M 7.125 -1.375 "/></g></g></g><g fill="#ffffff" fill-opacity="1"><g transform="translate(234.374188, 295.449708)"><g><path d="M 11.96875 -11.859375 L 11.96875 0 L 10.578125 0 L 3.46875 -8.84375 L 3.46875 0 L 1.78125 0 L 1.78125 -11.859375 L 3.171875 -11.859375 L 10.28125 -3.015625 L 10.28125 -11.859375 Z M 11.96875 -11.859375 "/></g></g></g><g fill="#ffffff" fill-opacity="1"><g transform="translate(249.886173, 295.449708)"><g/></g></g><g fill="#ffffff" fill-opacity="1"><g transform="translate(256.203174, 295.449708)"><g><path d="M 6.40625 -11.859375 C 7.9375 -11.859375 9.140625 -11.488281 10.015625 -10.75 C 10.898438 -10.019531 11.34375 -9.007812 11.34375 -7.71875 C 11.34375 -6.4375 10.898438 -5.425781 10.015625 -4.6875 C 9.140625 -3.957031 7.9375 -3.59375 6.40625 -3.59375 L 3.46875 -3.59375 L 3.46875 0 L 1.78125 0 L 1.78125 -11.859375 Z M 6.34375 -5.0625 C 7.414062 -5.0625 8.234375 -5.289062 8.796875 -5.75 C 9.367188 -6.207031 9.65625 -6.863281 9.65625 -7.71875 C 9.65625 -8.582031 9.367188 -9.238281 8.796875 -9.6875 C 8.234375 -10.144531 7.414062 -10.375 6.34375 -10.375 L 3.46875 -10.375 L 3.46875 -5.0625 Z M 6.34375 -5.0625 "/></g></g></g><g fill="#ffffff" fill-opacity="1"><g transform="translate(270.191126, 295.449708)"><g><path d="M 1.78125 -11.859375 L 3.46875 -11.859375 L 3.46875 -1.46875 L 9.890625 -1.46875 L 9.890625 0 L 1.78125 0 Z M 1.78125 -11.859375 "/></g></g></g><g fill="#ffffff" fill-opacity="1"><g transform="translate(282.011568, 295.449708)"><g><path d="M 9.328125 -2.96875 L 3.03125 -2.96875 L 1.734375 0 L -0.015625 0 L 5.359375 -11.859375 L 7.03125 -11.859375 L 12.421875 0 L 10.640625 0 Z M 8.734375 -4.3125 L 6.1875 -10.125 L 3.625 -4.3125 Z M 8.734375 -4.3125 "/></g></g></g><g fill="#ffffff" fill-opacity="1"><g transform="translate(296.16887, 295.449708)"><g><path d="M 4.125 -10.375 L 0.0625 -10.375 L 0.0625 -11.859375 L 9.875 -11.859375 L 9.875 -10.375 L 5.8125 -10.375 L 5.8125 0 L 4.125 0 Z M 4.125 -10.375 "/></g></g></g><g fill="#ffffff" fill-opacity="1"><g transform="translate(307.870773, 295.449708)"><g><path d="M 3.46875 -10.375 L 3.46875 -6.25 L 9.421875 -6.25 L 9.421875 -4.796875 L 3.46875 -4.796875 L 3.46875 0 L 1.78125 0 L 1.78125 -11.859375 L 10.140625 -11.859375 L 10.140625 -10.375 Z M 3.46875 -10.375 "/></g></g></g><g fill="#ffffff" fill-opacity="1"><g transform="translate(320.385505, 295.449708)"><g><path d="M 7.125 0.140625 C 5.925781 0.140625 4.847656 -0.117188 3.890625 -0.640625 C 2.929688 -1.171875 2.175781 -1.898438 1.625 -2.828125 C 1.082031 -3.753906 0.8125 -4.785156 0.8125 -5.921875 C 0.8125 -7.066406 1.082031 -8.101562 1.625 -9.03125 C 2.175781 -9.957031 2.929688 -10.679688 3.890625 -11.203125 C 4.847656 -11.722656 5.925781 -11.984375 7.125 -11.984375 C 8.3125 -11.984375 9.382812 -11.722656 10.34375 -11.203125 C 11.300781 -10.679688 12.050781 -9.957031 12.59375 -9.03125 C 13.144531 -8.113281 13.421875 -7.078125 13.421875 -5.921875 C 13.421875 -4.773438 13.144531 -3.738281 12.59375 -2.8125 C 12.050781 -1.894531 11.300781 -1.171875 10.34375 -0.640625 C 9.382812 -0.117188 8.3125 0.140625 7.125 0.140625 Z M 7.125 -1.375 C 8 -1.375 8.78125 -1.570312 9.46875 -1.96875 C 10.164062 -2.363281 10.710938 -2.90625 11.109375 -3.59375 C 11.515625 -4.289062 11.71875 -5.066406 11.71875 -5.921875 C 11.71875 -6.785156 11.515625 -7.5625 11.109375 -8.25 C 10.710938 -8.945312 10.164062 -9.492188 9.46875 -9.890625 C 8.78125 -10.285156 8 -10.484375 7.125 -10.484375 C 6.257812 -10.484375 5.472656 -10.285156 4.765625 -9.890625 C 4.054688 -9.492188 3.5 -8.945312 3.09375 -8.25 C 2.695312 -7.5625 2.5 -6.785156 2.5 -5.921875 C 2.5 -5.066406 2.695312 -4.289062 3.09375 -3.59375 C 3.5 -2.90625 4.054688 -2.363281 4.765625 -1.96875 C 5.472656 -1.570312 6.257812 -1.375 7.125 -1.375 Z M 7.125 -1.375 "/></g></g></g><g fill="#ffffff" fill-opacity="1"><g transform="translate(336.371641, 295.449708)"><g><path d="M 9.703125 0 L 7.140625 -3.640625 C 6.828125 -3.617188 6.582031 -3.609375 6.40625 -3.609375 L 3.46875 -3.609375 L 3.46875 0 L 1.78125 0 L 1.78125 -11.859375 L 6.40625 -11.859375 C 7.9375 -11.859375 9.140625 -11.488281 10.015625 -10.75 C 10.898438 -10.019531 11.34375 -9.007812 11.34375 -7.71875 C 11.34375 -6.800781 11.117188 -6.019531 10.671875 -5.375 C 10.222656 -4.738281 9.578125 -4.273438 8.734375 -3.984375 L 11.546875 0 Z M 6.34375 -5.046875 C 7.414062 -5.046875 8.234375 -5.273438 8.796875 -5.734375 C 9.367188 -6.203125 9.65625 -6.863281 9.65625 -7.71875 C 9.65625 -8.582031 9.367188 -9.238281 8.796875 -9.6875 C 8.234375 -10.144531 7.414062 -10.375 6.34375 -10.375 L 3.46875 -10.375 L 3.46875 -5.046875 Z M 6.34375 -5.046875 "/></g></g></g><g fill="#ffffff" fill-opacity="1"><g transform="translate(350.444257, 295.449708)"><g><path d="M 12.765625 0 L 12.75 -8.640625 L 8.46875 -1.4375 L 7.6875 -1.4375 L 3.40625 -8.59375 L 3.40625 0 L 1.78125 0 L 1.78125 -11.859375 L 3.171875 -11.859375 L 8.109375 -3.515625 L 12.984375 -11.859375 L 14.375 -11.859375 L 14.390625 0 Z M 12.765625 0 "/></g></g></g></svg>