<svg xmlns="http://www.w3.org/2000/svg" xmlns:xlink="http://www.w3.org/1999/xlink" width="1000" zoomAndPan="magnify" viewBox="0 0 375 374.999991" height="4000" preserveAspectRatio="xMidYMid meet" version="1.0"><defs><g/><clipPath id="6e47ea2731"><path d="M 254 196 L 274 196 L 274 217 L 254 217 Z M 254 196 " clip-rule="nonzero"/></clipPath><clipPath id="f1f57d1523"><path d="M 265.253906 196.492188 L 273.632812 204.382812 L 262.625 216.074219 L 254.246094 208.183594 Z M 265.253906 196.492188 " clip-rule="nonzero"/></clipPath><clipPath id="40708d15e2"><path d="M 261.574219 182.246094 L 288.175781 182.246094 L 288.175781 208.847656 L 261.574219 208.847656 Z M 261.574219 182.246094 " clip-rule="nonzero"/></clipPath><clipPath id="fd087334da"><path d="M 274.875 182.246094 C 267.527344 182.246094 261.574219 188.199219 261.574219 195.546875 C 261.574219 202.890625 267.527344 208.847656 274.875 208.847656 C 282.21875 208.847656 288.175781 202.890625 288.175781 195.546875 C 288.175781 188.199219 282.21875 182.246094 274.875 182.246094 Z M 274.875 182.246094 " clip-rule="nonzero"/></clipPath><clipPath id="2c35ba9a51"><path d="M 252 188.835938 L 281.457031 188.835938 L 281.457031 218.835938 L 252 218.835938 Z M 252 188.835938 " clip-rule="nonzero"/></clipPath></defs><g fill="#2e9841" fill-opacity="1"><g transform="translate(-3.842587, 211.747935)"><g><path d="M 30.09375 0 L 21.296875 -15.46875 L 15.015625 -15.46875 L 15.015625 0 L 5.171875 0 L 5.171875 -45.3125 L 23.5 -45.3125 C 26.519531 -45.3125 29.21875 -44.664062 31.59375 -43.375 C 33.96875 -42.082031 35.84375 -40.3125 37.21875 -38.0625 C 38.601562 -35.820312 39.296875 -33.234375 39.296875 -30.296875 C 39.296875 -27.359375 38.550781 -24.734375 37.0625 -22.421875 C 35.570312 -20.117188 33.578125 -18.363281 31.078125 -17.15625 L 41.109375 0 Z M 15.015625 -36.25 L 15.015625 -24.53125 L 22.84375 -24.53125 C 24.875 -24.53125 26.472656 -25.078125 27.640625 -26.171875 C 28.804688 -27.273438 29.390625 -28.671875 29.390625 -30.359375 C 29.390625 -32.085938 28.804688 -33.5 27.640625 -34.59375 C 26.472656 -35.695312 24.875 -36.25 22.84375 -36.25 Z M 15.015625 -36.25 "/></g></g></g><g fill="#2e9841" fill-opacity="1"><g transform="translate(35.246482, 211.747935)"><g><path d="M 38.453125 -17.609375 C 38.453125 -16.703125 38.390625 -15.773438 38.265625 -14.828125 L 11.84375 -14.828125 C 12.226562 -12.453125 13.175781 -10.625 14.6875 -9.34375 C 16.195312 -8.070312 18.097656 -7.4375 20.390625 -7.4375 C 22.023438 -7.4375 23.488281 -7.789062 24.78125 -8.5 C 26.082031 -9.21875 27.078125 -10.203125 27.765625 -11.453125 L 37.734375 -11.453125 C 36.441406 -7.660156 34.238281 -4.640625 31.125 -2.390625 C 28.019531 -0.148438 24.441406 0.96875 20.390625 0.96875 C 16.941406 0.96875 13.84375 0.160156 11.09375 -1.453125 C 8.351562 -3.078125 6.195312 -5.28125 4.625 -8.0625 C 3.050781 -10.84375 2.265625 -13.984375 2.265625 -17.484375 C 2.265625 -20.972656 3.050781 -24.109375 4.625 -26.890625 C 6.195312 -29.679688 8.351562 -31.882812 11.09375 -33.5 C 13.84375 -35.113281 16.941406 -35.921875 20.390625 -35.921875 C 23.972656 -35.921875 27.125 -35.085938 29.84375 -33.421875 C 32.5625 -31.765625 34.675781 -29.554688 36.1875 -26.796875 C 37.695312 -24.035156 38.453125 -20.972656 38.453125 -17.609375 Z M 20.390625 -27.90625 C 18.273438 -27.90625 16.492188 -27.320312 15.046875 -26.15625 C 13.597656 -24.988281 12.617188 -23.367188 12.109375 -21.296875 L 29 -21.296875 C 27.613281 -25.703125 24.742188 -27.90625 20.390625 -27.90625 Z M 20.390625 -27.90625 "/></g></g></g><g fill="#2e9841" fill-opacity="1"><g transform="translate(72.199824, 211.747935)"><g><path d="M 16.953125 0.96875 C 14.023438 0.96875 11.457031 0.453125 9.25 -0.578125 C 7.050781 -1.617188 5.335938 -3.078125 4.109375 -4.953125 C 2.878906 -6.828125 2.265625 -9.015625 2.265625 -11.515625 L 11.453125 -11.515625 C 11.492188 -9.960938 12.054688 -8.796875 13.140625 -8.015625 C 14.222656 -7.242188 15.601562 -6.859375 17.28125 -6.859375 C 18.625 -6.859375 19.789062 -7.148438 20.78125 -7.734375 C 21.769531 -8.316406 22.265625 -9.191406 22.265625 -10.359375 C 22.265625 -11.566406 21.601562 -12.414062 20.28125 -12.90625 C 18.96875 -13.40625 17.382812 -13.804688 15.53125 -14.109375 C 14.15625 -14.328125 12.722656 -14.628906 11.234375 -15.015625 C 9.742188 -15.398438 8.375 -15.957031 7.125 -16.6875 C 5.875 -17.425781 4.847656 -18.441406 4.046875 -19.734375 C 3.242188 -21.035156 2.84375 -22.722656 2.84375 -24.796875 C 2.84375 -26.992188 3.4375 -28.929688 4.625 -30.609375 C 5.8125 -32.296875 7.453125 -33.601562 9.546875 -34.53125 C 11.640625 -35.457031 14.109375 -35.921875 16.953125 -35.921875 C 19.765625 -35.921875 22.21875 -35.4375 24.3125 -34.46875 C 26.40625 -33.5 28.03125 -32.140625 29.1875 -30.390625 C 30.351562 -28.640625 30.9375 -26.601562 30.9375 -24.28125 L 21.9375 -24.28125 C 21.9375 -25.65625 21.472656 -26.6875 20.546875 -27.375 C 19.617188 -28.070312 18.335938 -28.421875 16.703125 -28.421875 C 15.234375 -28.421875 14.085938 -28.109375 13.265625 -27.484375 C 12.453125 -26.859375 12.046875 -26.046875 12.046875 -25.046875 C 12.046875 -23.878906 12.691406 -23.082031 13.984375 -22.65625 C 15.273438 -22.226562 16.828125 -21.863281 18.640625 -21.5625 C 20.066406 -21.300781 21.535156 -20.984375 23.046875 -20.609375 C 24.554688 -20.242188 25.957031 -19.691406 27.25 -18.953125 C 28.539062 -18.222656 29.585938 -17.210938 30.390625 -15.921875 C 31.191406 -14.628906 31.59375 -12.925781 31.59375 -10.8125 C 31.59375 -8.4375 30.988281 -6.363281 29.78125 -4.59375 C 28.570312 -2.820312 26.863281 -1.453125 24.65625 -0.484375 C 22.457031 0.484375 19.890625 0.96875 16.953125 0.96875 Z M 16.953125 0.96875 "/></g></g></g><g fill="#2e9841" fill-opacity="1"><g transform="translate(102.487091, 211.747935)"><g><path d="M 20.78125 0.96875 C 17.28125 0.96875 14.128906 0.148438 11.328125 -1.484375 C 8.523438 -3.128906 6.3125 -5.351562 4.6875 -8.15625 C 3.070312 -10.957031 2.265625 -14.109375 2.265625 -17.609375 C 2.265625 -21.097656 3.070312 -24.222656 4.6875 -26.984375 C 6.3125 -29.753906 8.523438 -31.9375 11.328125 -33.53125 C 14.128906 -35.125 17.300781 -35.921875 20.84375 -35.921875 C 23.863281 -35.921875 26.613281 -35.328125 29.09375 -34.140625 C 31.582031 -32.960938 33.65625 -31.289062 35.3125 -29.125 C 36.976562 -26.96875 38.085938 -24.46875 38.640625 -21.625 L 29.265625 -21.625 C 28.484375 -23.34375 27.347656 -24.675781 25.859375 -25.625 C 24.367188 -26.582031 22.675781 -27.0625 20.78125 -27.0625 C 19.09375 -27.0625 17.566406 -26.640625 16.203125 -25.796875 C 14.847656 -24.953125 13.78125 -23.816406 13 -22.390625 C 12.226562 -20.972656 11.84375 -19.359375 11.84375 -17.546875 C 11.84375 -15.734375 12.226562 -14.101562 13 -12.65625 C 13.78125 -11.207031 14.847656 -10.050781 16.203125 -9.1875 C 17.566406 -8.320312 19.09375 -7.890625 20.78125 -7.890625 C 22.71875 -7.890625 24.410156 -8.394531 25.859375 -9.40625 C 27.304688 -10.425781 28.441406 -11.882812 29.265625 -13.78125 L 38.78125 -13.78125 C 38.21875 -10.851562 37.09375 -8.273438 35.40625 -6.046875 C 33.726562 -3.828125 31.632812 -2.101562 29.125 -0.875 C 26.625 0.351562 23.84375 0.96875 20.78125 0.96875 Z M 20.78125 0.96875 "/></g></g></g><g fill="#2e9841" fill-opacity="1"><g transform="translate(139.246275, 211.747935)"><g><path d="M 20.515625 0.96875 C 17.234375 0.96875 14.351562 0.3125 11.875 -1 C 9.394531 -2.320312 7.472656 -4.15625 6.109375 -6.5 C 4.753906 -8.851562 4.078125 -11.609375 4.078125 -14.765625 L 4.078125 -34.953125 L 13.53125 -34.953125 L 13.53125 -15.859375 C 13.53125 -13.359375 14.144531 -11.40625 15.375 -10 C 16.601562 -8.59375 18.316406 -7.890625 20.515625 -7.890625 C 22.722656 -7.890625 24.429688 -8.601562 25.640625 -10.03125 C 26.847656 -11.457031 27.453125 -13.398438 27.453125 -15.859375 L 27.453125 -34.953125 L 36.90625 -34.953125 L 36.90625 -14.765625 C 36.90625 -11.609375 36.222656 -8.851562 34.859375 -6.5 C 33.503906 -4.15625 31.59375 -2.320312 29.125 -1 C 26.664062 0.3125 23.796875 0.96875 20.515625 0.96875 Z M 20.515625 0.96875 "/></g></g></g><g fill="#2e9841" fill-opacity="1"><g transform="translate(176.523216, 211.747935)"><g><path d="M 38.453125 -17.609375 C 38.453125 -16.703125 38.390625 -15.773438 38.265625 -14.828125 L 11.84375 -14.828125 C 12.226562 -12.453125 13.175781 -10.625 14.6875 -9.34375 C 16.195312 -8.070312 18.097656 -7.4375 20.390625 -7.4375 C 22.023438 -7.4375 23.488281 -7.789062 24.78125 -8.5 C 26.082031 -9.21875 27.078125 -10.203125 27.765625 -11.453125 L 37.734375 -11.453125 C 36.441406 -7.660156 34.238281 -4.640625 31.125 -2.390625 C 28.019531 -0.148438 24.441406 0.96875 20.390625 0.96875 C 16.941406 0.96875 13.84375 0.160156 11.09375 -1.453125 C 8.351562 -3.078125 6.195312 -5.28125 4.625 -8.0625 C 3.050781 -10.84375 2.265625 -13.984375 2.265625 -17.484375 C 2.265625 -20.972656 3.050781 -24.109375 4.625 -26.890625 C 6.195312 -29.679688 8.351562 -31.882812 11.09375 -33.5 C 13.84375 -35.113281 16.941406 -35.921875 20.390625 -35.921875 C 23.972656 -35.921875 27.125 -35.085938 29.84375 -33.421875 C 32.5625 -31.765625 34.675781 -29.554688 36.1875 -26.796875 C 37.695312 -24.035156 38.453125 -20.972656 38.453125 -17.609375 Z M 20.390625 -27.90625 C 18.273438 -27.90625 16.492188 -27.320312 15.046875 -26.15625 C 13.597656 -24.988281 12.617188 -23.367188 12.109375 -21.296875 L 29 -21.296875 C 27.613281 -25.703125 24.742188 -27.90625 20.390625 -27.90625 Z M 20.390625 -27.90625 "/></g></g></g><g fill="#ffffff" fill-opacity="1"><g transform="translate(223.165567, 212.027403)"><g><path d="M 31.65625 -39.9375 L 11.84375 -39.9375 L 11.84375 -24.984375 L 29.96875 -24.984375 L 29.96875 -19.671875 L 11.84375 -19.671875 L 11.84375 0 L 6.21875 0 L 6.21875 -45.3125 L 31.65625 -45.3125 Z M 31.65625 -39.9375 "/></g></g></g><g fill="#ffffff" fill-opacity="1"><g transform="translate(253.331429, 212.027403)"><g><path d="M 21.296875 0.78125 C 17.753906 0.78125 14.59375 -0.015625 11.8125 -1.609375 C 9.03125 -3.210938 6.828125 -5.382812 5.203125 -8.125 C 3.585938 -10.863281 2.78125 -13.984375 2.78125 -17.484375 C 2.78125 -20.972656 3.585938 -24.097656 5.203125 -26.859375 C 6.828125 -29.617188 9.03125 -31.785156 11.8125 -33.359375 C 14.59375 -34.941406 17.753906 -35.734375 21.296875 -35.734375 C 24.835938 -35.734375 28.007812 -34.929688 30.8125 -33.328125 C 33.613281 -31.734375 35.820312 -29.566406 37.4375 -26.828125 C 39.0625 -24.085938 39.875 -20.972656 39.875 -17.484375 C 39.875 -13.984375 39.0625 -10.863281 37.4375 -8.125 C 35.820312 -5.382812 33.613281 -3.210938 30.8125 -1.609375 C 28.007812 -0.015625 24.835938 0.78125 21.296875 0.78125 Z M 21.296875 -4.53125 C 23.796875 -4.53125 26.015625 -5.085938 27.953125 -6.203125 C 29.898438 -7.328125 31.4375 -8.859375 32.5625 -10.796875 C 33.6875 -12.742188 34.25 -14.972656 34.25 -17.484375 C 34.25 -19.984375 33.6875 -22.203125 32.5625 -24.140625 C 31.4375 -26.085938 29.898438 -27.617188 27.953125 -28.734375 C 26.015625 -29.859375 23.796875 -30.421875 21.296875 -30.421875 C 18.796875 -30.421875 16.570312 -29.859375 14.625 -28.734375 C 12.6875 -27.617188 11.164062 -26.085938 10.0625 -24.140625 C 8.96875 -22.203125 8.421875 -19.984375 8.421875 -17.484375 C 8.421875 -14.972656 8.96875 -12.742188 10.0625 -10.796875 C 11.164062 -8.859375 12.695312 -7.328125 14.65625 -6.203125 C 16.625 -5.085938 18.835938 -4.53125 21.296875 -4.53125 Z M 21.296875 -4.53125 "/></g></g></g><g fill="#ffffff" fill-opacity="1"><g transform="translate(292.301174, 212.027403)"><g><path d="M 21.296875 0.78125 C 17.753906 0.78125 14.59375 -0.015625 11.8125 -1.609375 C 9.03125 -3.210938 6.828125 -5.382812 5.203125 -8.125 C 3.585938 -10.863281 2.78125 -13.984375 2.78125 -17.484375 C 2.78125 -20.972656 3.585938 -24.097656 5.203125 -26.859375 C 6.828125 -29.617188 9.03125 -31.785156 11.8125 -33.359375 C 14.59375 -34.941406 17.753906 -35.734375 21.296875 -35.734375 C 24.835938 -35.734375 28.007812 -34.929688 30.8125 -33.328125 C 33.613281 -31.734375 35.820312 -29.566406 37.4375 -26.828125 C 39.0625 -24.085938 39.875 -20.972656 39.875 -17.484375 C 39.875 -13.984375 39.0625 -10.863281 37.4375 -8.125 C 35.820312 -5.382812 33.613281 -3.210938 30.8125 -1.609375 C 28.007812 -0.015625 24.835938 0.78125 21.296875 0.78125 Z M 21.296875 -4.53125 C 23.796875 -4.53125 26.015625 -5.085938 27.953125 -6.203125 C 29.898438 -7.328125 31.4375 -8.859375 32.5625 -10.796875 C 33.6875 -12.742188 34.25 -14.972656 34.25 -17.484375 C 34.25 -19.984375 33.6875 -22.203125 32.5625 -24.140625 C 31.4375 -26.085938 29.898438 -27.617188 27.953125 -28.734375 C 26.015625 -29.859375 23.796875 -30.421875 21.296875 -30.421875 C 18.796875 -30.421875 16.570312 -29.859375 14.625 -28.734375 C 12.6875 -27.617188 11.164062 -26.085938 10.0625 -24.140625 C 8.96875 -22.203125 8.421875 -19.984375 8.421875 -17.484375 C 8.421875 -14.972656 8.96875 -12.742188 10.0625 -10.796875 C 11.164062 -8.859375 12.695312 -7.328125 14.65625 -6.203125 C 16.625 -5.085938 18.835938 -4.53125 21.296875 -4.53125 Z M 21.296875 -4.53125 "/></g></g></g><g fill="#ffffff" fill-opacity="1"><g transform="translate(331.270914, 212.027403)"><g><path d="M 33.734375 -47.453125 L 39.234375 -47.453125 L 39.234375 0 L 35.015625 0 L 34.25 -4.984375 C 32.644531 -3.171875 30.6875 -1.753906 28.375 -0.734375 C 26.070312 0.273438 23.5625 0.78125 20.84375 0.78125 C 17.300781 0.78125 14.179688 -0.015625 11.484375 -1.609375 C 8.785156 -3.210938 6.660156 -5.394531 5.109375 -8.15625 C 3.554688 -10.914062 2.78125 -14.023438 2.78125 -17.484375 C 2.78125 -20.972656 3.554688 -24.085938 5.109375 -26.828125 C 6.660156 -29.566406 8.785156 -31.734375 11.484375 -33.328125 C 14.179688 -34.929688 17.300781 -35.734375 20.84375 -35.734375 C 23.4375 -35.734375 25.832031 -35.269531 28.03125 -34.34375 C 30.226562 -33.414062 32.128906 -32.148438 33.734375 -30.546875 Z M 21.234375 -4.53125 C 23.691406 -4.53125 25.890625 -5.101562 27.828125 -6.25 C 29.773438 -7.394531 31.304688 -8.9375 32.421875 -10.875 C 33.546875 -12.8125 34.109375 -15.015625 34.109375 -17.484375 C 34.109375 -19.941406 33.546875 -22.140625 32.421875 -24.078125 C 31.304688 -26.023438 29.773438 -27.566406 27.828125 -28.703125 C 25.890625 -29.847656 23.691406 -30.421875 21.234375 -30.421875 C 18.773438 -30.421875 16.570312 -29.859375 14.625 -28.734375 C 12.6875 -27.617188 11.164062 -26.078125 10.0625 -24.109375 C 8.96875 -22.148438 8.421875 -19.941406 8.421875 -17.484375 C 8.421875 -15.015625 8.96875 -12.796875 10.0625 -10.828125 C 11.164062 -8.867188 12.6875 -7.328125 14.625 -6.203125 C 16.570312 -5.085938 18.773438 -4.53125 21.234375 -4.53125 Z M 21.234375 -4.53125 "/></g></g></g><g clip-path="url(#6e47ea2731)"><g clip-path="url(#f1f57d1523)"><path fill="#ffffff" d="M 265.253906 196.492188 L 273.632812 204.382812 L 262.628906 216.066406 L 254.25 208.175781 Z M 265.253906 196.492188 " fill-opacity="1" fill-rule="nonzero"/></g></g><g clip-path="url(#40708d15e2)"><g clip-path="url(#fd087334da)"><path fill="#2e9841" d="M 261.574219 182.246094 L 288.175781 182.246094 L 288.175781 208.847656 L 261.574219 208.847656 Z M 261.574219 182.246094 " fill-opacity="1" fill-rule="nonzero"/></g></g><g clip-path="url(#2c35ba9a51)"><path fill="#ffffff" d="M 274.425781 203.21875 C 276.167969 201.476562 281.46875 195.714844 281.46875 195.714844 C 281.46875 195.714844 281.09375 195.140625 280.183594 194.09375 L 274.339844 199.933594 C 274.015625 200.261719 273.488281 200.261719 273.164062 199.9375 C 272.839844 199.609375 272.839844 199.085938 273.167969 198.757812 L 279.0625 192.863281 C 278.832031 192.617188 278.574219 192.359375 278.304688 192.082031 C 278 191.78125 277.714844 191.507812 277.453125 191.253906 L 271.609375 197.097656 C 271.28125 197.421875 270.757812 197.421875 270.433594 197.097656 C 270.109375 196.769531 270.105469 196.246094 270.433594 195.921875 L 276.21875 190.136719 C 275.195312 189.246094 274.621094 188.863281 274.621094 188.863281 C 274.621094 188.863281 269.75 193.238281 267.097656 195.886719 C 264.144531 198.84375 266.824219 201.566406 265.660156 202.730469 C 264.496094 203.890625 259.167969 208.207031 256.449219 210.929688 C 251.457031 215.917969 252 216.695312 252.808594 217.503906 C 253.617188 218.316406 254.394531 218.855469 259.382812 213.863281 C 262.105469 211.144531 266.421875 205.820312 267.582031 204.65625 C 268.746094 203.492188 271.425781 206.210938 274.425781 203.21875 Z M 274.425781 203.21875 " fill-opacity="1" fill-rule="nonzero"/></g><g fill="#ffffff" fill-opacity="1"><g transform="translate(29.569894, 237.765805)"><g><path d="M 3.0625 -9.15625 L 3.0625 -5.515625 L 8.3125 -5.515625 L 8.3125 -4.234375 L 3.0625 -4.234375 L 3.0625 0 L 1.5625 0 L 1.5625 -10.453125 L 8.953125 -10.453125 L 8.953125 -9.15625 Z M 3.0625 -9.15625 "/></g></g></g><g fill="#ffffff" fill-opacity="1"><g transform="translate(40.604105, 237.765805)"><g><path d="M 6.28125 0.125 C 5.226562 0.125 4.28125 -0.101562 3.4375 -0.5625 C 2.59375 -1.03125 1.925781 -1.671875 1.4375 -2.484375 C 0.957031 -3.304688 0.71875 -4.222656 0.71875 -5.234375 C 0.71875 -6.234375 0.957031 -7.140625 1.4375 -7.953125 C 1.925781 -8.773438 2.59375 -9.414062 3.4375 -9.875 C 4.28125 -10.34375 5.226562 -10.578125 6.28125 -10.578125 C 7.332031 -10.578125 8.28125 -10.34375 9.125 -9.875 C 9.96875 -9.414062 10.628906 -8.78125 11.109375 -7.96875 C 11.585938 -7.15625 11.828125 -6.242188 11.828125 -5.234375 C 11.828125 -4.210938 11.585938 -3.296875 11.109375 -2.484375 C 10.628906 -1.671875 9.96875 -1.03125 9.125 -0.5625 C 8.28125 -0.101562 7.332031 0.125 6.28125 0.125 Z M 6.28125 -1.203125 C 7.050781 -1.203125 7.742188 -1.375 8.359375 -1.71875 C 8.972656 -2.070312 9.457031 -2.554688 9.8125 -3.171875 C 10.164062 -3.785156 10.34375 -4.472656 10.34375 -5.234375 C 10.34375 -5.984375 10.164062 -6.664062 9.8125 -7.28125 C 9.457031 -7.894531 8.972656 -8.375 8.359375 -8.71875 C 7.742188 -9.070312 7.050781 -9.25 6.28125 -9.25 C 5.519531 -9.25 4.828125 -9.070312 4.203125 -8.71875 C 3.578125 -8.375 3.085938 -7.894531 2.734375 -7.28125 C 2.378906 -6.664062 2.203125 -5.984375 2.203125 -5.234375 C 2.203125 -4.472656 2.378906 -3.785156 2.734375 -3.171875 C 3.085938 -2.554688 3.578125 -2.070312 4.203125 -1.71875 C 4.828125 -1.375 5.519531 -1.203125 6.28125 -1.203125 Z M 6.28125 -1.203125 "/></g></g></g><g fill="#ffffff" fill-opacity="1"><g transform="translate(54.698912, 237.765805)"><g><path d="M 6.28125 0.125 C 5.226562 0.125 4.28125 -0.101562 3.4375 -0.5625 C 2.59375 -1.03125 1.925781 -1.671875 1.4375 -2.484375 C 0.957031 -3.304688 0.71875 -4.222656 0.71875 -5.234375 C 0.71875 -6.234375 0.957031 -7.140625 1.4375 -7.953125 C 1.925781 -8.773438 2.59375 -9.414062 3.4375 -9.875 C 4.28125 -10.34375 5.226562 -10.578125 6.28125 -10.578125 C 7.332031 -10.578125 8.28125 -10.34375 9.125 -9.875 C 9.96875 -9.414062 10.628906 -8.78125 11.109375 -7.96875 C 11.585938 -7.15625 11.828125 -6.242188 11.828125 -5.234375 C 11.828125 -4.210938 11.585938 -3.296875 11.109375 -2.484375 C 10.628906 -1.671875 9.96875 -1.03125 9.125 -0.5625 C 8.28125 -0.101562 7.332031 0.125 6.28125 0.125 Z M 6.28125 -1.203125 C 7.050781 -1.203125 7.742188 -1.375 8.359375 -1.71875 C 8.972656 -2.070312 9.457031 -2.554688 9.8125 -3.171875 C 10.164062 -3.785156 10.34375 -4.472656 10.34375 -5.234375 C 10.34375 -5.984375 10.164062 -6.664062 9.8125 -7.28125 C 9.457031 -7.894531 8.972656 -8.375 8.359375 -8.71875 C 7.742188 -9.070312 7.050781 -9.25 6.28125 -9.25 C 5.519531 -9.25 4.828125 -9.070312 4.203125 -8.71875 C 3.578125 -8.375 3.085938 -7.894531 2.734375 -7.28125 C 2.378906 -6.664062 2.203125 -5.984375 2.203125 -5.234375 C 2.203125 -4.472656 2.378906 -3.785156 2.734375 -3.171875 C 3.085938 -2.554688 3.578125 -2.070312 4.203125 -1.71875 C 4.828125 -1.375 5.519531 -1.203125 6.28125 -1.203125 Z M 6.28125 -1.203125 "/></g></g></g><g fill="#ffffff" fill-opacity="1"><g transform="translate(68.79372, 237.765805)"><g><path d="M 1.5625 -10.453125 L 5.96875 -10.453125 C 7.082031 -10.453125 8.066406 -10.234375 8.921875 -9.796875 C 9.773438 -9.359375 10.4375 -8.742188 10.90625 -7.953125 C 11.382812 -7.160156 11.625 -6.253906 11.625 -5.234375 C 11.625 -4.203125 11.382812 -3.289062 10.90625 -2.5 C 10.4375 -1.707031 9.773438 -1.09375 8.921875 -0.65625 C 8.066406 -0.21875 7.082031 0 5.96875 0 L 1.5625 0 Z M 5.890625 -1.296875 C 6.734375 -1.296875 7.472656 -1.457031 8.109375 -1.78125 C 8.753906 -2.113281 9.25 -2.578125 9.59375 -3.171875 C 9.945312 -3.765625 10.125 -4.453125 10.125 -5.234375 C 10.125 -6.003906 9.945312 -6.6875 9.59375 -7.28125 C 9.25 -7.875 8.753906 -8.332031 8.109375 -8.65625 C 7.472656 -8.988281 6.734375 -9.15625 5.890625 -9.15625 L 3.0625 -9.15625 L 3.0625 -1.296875 Z M 5.890625 -1.296875 "/></g></g></g><g fill="#ffffff" fill-opacity="1"><g transform="translate(82.679511, 237.765805)"><g/></g></g><g fill="#ffffff" fill-opacity="1"><g transform="translate(88.249453, 237.765805)"><g><path d="M 8.5625 0 L 6.296875 -3.21875 C 6.023438 -3.195312 5.804688 -3.1875 5.640625 -3.1875 L 3.0625 -3.1875 L 3.0625 0 L 1.5625 0 L 1.5625 -10.453125 L 5.640625 -10.453125 C 6.992188 -10.453125 8.0625 -10.128906 8.84375 -9.484375 C 9.625 -8.835938 10.015625 -7.945312 10.015625 -6.8125 C 10.015625 -6 9.8125 -5.3125 9.40625 -4.75 C 9.007812 -4.1875 8.441406 -3.773438 7.703125 -3.515625 L 10.1875 0 Z M 5.59375 -4.453125 C 6.539062 -4.453125 7.265625 -4.65625 7.765625 -5.0625 C 8.265625 -5.46875 8.515625 -6.050781 8.515625 -6.8125 C 8.515625 -7.570312 8.265625 -8.148438 7.765625 -8.546875 C 7.265625 -8.953125 6.539062 -9.15625 5.59375 -9.15625 L 3.0625 -9.15625 L 3.0625 -4.453125 Z M 5.59375 -4.453125 "/></g></g></g><g fill="#ffffff" fill-opacity="1"><g transform="translate(100.657194, 237.765805)"><g><path d="M 9.15625 -1.296875 L 9.15625 0 L 1.5625 0 L 1.5625 -10.453125 L 8.953125 -10.453125 L 8.953125 -9.15625 L 3.0625 -9.15625 L 3.0625 -5.9375 L 8.3125 -5.9375 L 8.3125 -4.671875 L 3.0625 -4.671875 L 3.0625 -1.296875 Z M 9.15625 -1.296875 "/></g></g></g><g fill="#ffffff" fill-opacity="1"><g transform="translate(112.213941, 237.765805)"><g><path d="M 1.5625 -10.453125 L 5.96875 -10.453125 C 7.082031 -10.453125 8.066406 -10.234375 8.921875 -9.796875 C 9.773438 -9.359375 10.4375 -8.742188 10.90625 -7.953125 C 11.382812 -7.160156 11.625 -6.253906 11.625 -5.234375 C 11.625 -4.203125 11.382812 -3.289062 10.90625 -2.5 C 10.4375 -1.707031 9.773438 -1.09375 8.921875 -0.65625 C 8.066406 -0.21875 7.082031 0 5.96875 0 L 1.5625 0 Z M 5.890625 -1.296875 C 6.734375 -1.296875 7.472656 -1.457031 8.109375 -1.78125 C 8.753906 -2.113281 9.25 -2.578125 9.59375 -3.171875 C 9.945312 -3.765625 10.125 -4.453125 10.125 -5.234375 C 10.125 -6.003906 9.945312 -6.6875 9.59375 -7.28125 C 9.25 -7.875 8.753906 -8.332031 8.109375 -8.65625 C 7.472656 -8.988281 6.734375 -9.15625 5.890625 -9.15625 L 3.0625 -9.15625 L 3.0625 -1.296875 Z M 5.890625 -1.296875 "/></g></g></g><g fill="#ffffff" fill-opacity="1"><g transform="translate(126.099738, 237.765805)"><g><path d="M 1.5625 -10.453125 L 3.0625 -10.453125 L 3.0625 0 L 1.5625 0 Z M 1.5625 -10.453125 "/></g></g></g><g fill="#ffffff" fill-opacity="1"><g transform="translate(132.28179, 237.765805)"><g><path d="M 4.609375 0.125 C 3.828125 0.125 3.066406 0.00390625 2.328125 -0.234375 C 1.597656 -0.484375 1.023438 -0.800781 0.609375 -1.1875 L 1.171875 -2.359375 C 1.566406 -2.003906 2.070312 -1.710938 2.6875 -1.484375 C 3.3125 -1.265625 3.953125 -1.15625 4.609375 -1.15625 C 5.484375 -1.15625 6.132812 -1.300781 6.5625 -1.59375 C 6.988281 -1.882812 7.203125 -2.273438 7.203125 -2.765625 C 7.203125 -3.117188 7.082031 -3.40625 6.84375 -3.625 C 6.613281 -3.851562 6.328125 -4.023438 5.984375 -4.140625 C 5.640625 -4.265625 5.15625 -4.40625 4.53125 -4.5625 C 3.738281 -4.75 3.097656 -4.9375 2.609375 -5.125 C 2.128906 -5.3125 1.71875 -5.601562 1.375 -6 C 1.03125 -6.394531 0.859375 -6.925781 0.859375 -7.59375 C 0.859375 -8.144531 1.003906 -8.644531 1.296875 -9.09375 C 1.597656 -9.539062 2.046875 -9.898438 2.640625 -10.171875 C 3.242188 -10.441406 3.988281 -10.578125 4.875 -10.578125 C 5.488281 -10.578125 6.09375 -10.492188 6.6875 -10.328125 C 7.289062 -10.171875 7.804688 -9.945312 8.234375 -9.65625 L 7.734375 -8.453125 C 7.296875 -8.734375 6.828125 -8.945312 6.328125 -9.09375 C 5.835938 -9.238281 5.351562 -9.3125 4.875 -9.3125 C 4.019531 -9.3125 3.378906 -9.15625 2.953125 -8.84375 C 2.535156 -8.53125 2.328125 -8.128906 2.328125 -7.640625 C 2.328125 -7.285156 2.445312 -6.992188 2.6875 -6.765625 C 2.925781 -6.546875 3.222656 -6.375 3.578125 -6.25 C 3.929688 -6.125 4.410156 -5.992188 5.015625 -5.859375 C 5.804688 -5.671875 6.441406 -5.476562 6.921875 -5.28125 C 7.398438 -5.09375 7.804688 -4.804688 8.140625 -4.421875 C 8.484375 -4.035156 8.65625 -3.515625 8.65625 -2.859375 C 8.65625 -2.304688 8.503906 -1.800781 8.203125 -1.34375 C 7.910156 -0.894531 7.457031 -0.535156 6.84375 -0.265625 C 6.238281 -0.00390625 5.492188 0.125 4.609375 0.125 Z M 4.609375 0.125 "/></g></g></g><g fill="#ffffff" fill-opacity="1"><g transform="translate(143.106984, 237.765805)"><g><path d="M 3.640625 -9.15625 L 0.0625 -9.15625 L 0.0625 -10.453125 L 8.703125 -10.453125 L 8.703125 -9.15625 L 5.125 -9.15625 L 5.125 0 L 3.640625 0 Z M 3.640625 -9.15625 "/></g></g></g><g fill="#ffffff" fill-opacity="1"><g transform="translate(153.424565, 237.765805)"><g><path d="M 8.5625 0 L 6.296875 -3.21875 C 6.023438 -3.195312 5.804688 -3.1875 5.640625 -3.1875 L 3.0625 -3.1875 L 3.0625 0 L 1.5625 0 L 1.5625 -10.453125 L 5.640625 -10.453125 C 6.992188 -10.453125 8.0625 -10.128906 8.84375 -9.484375 C 9.625 -8.835938 10.015625 -7.945312 10.015625 -6.8125 C 10.015625 -6 9.8125 -5.3125 9.40625 -4.75 C 9.007812 -4.1875 8.441406 -3.773438 7.703125 -3.515625 L 10.1875 0 Z M 5.59375 -4.453125 C 6.539062 -4.453125 7.265625 -4.65625 7.765625 -5.0625 C 8.265625 -5.46875 8.515625 -6.050781 8.515625 -6.8125 C 8.515625 -7.570312 8.265625 -8.148438 7.765625 -8.546875 C 7.265625 -8.953125 6.539062 -9.15625 5.59375 -9.15625 L 3.0625 -9.15625 L 3.0625 -4.453125 Z M 5.59375 -4.453125 "/></g></g></g><g fill="#ffffff" fill-opacity="1"><g transform="translate(165.832306, 237.765805)"><g><path d="M 1.5625 -10.453125 L 3.0625 -10.453125 L 3.0625 0 L 1.5625 0 Z M 1.5625 -10.453125 "/></g></g></g><g fill="#ffffff" fill-opacity="1"><g transform="translate(172.014358, 237.765805)"><g><path d="M 8.609375 -5.421875 C 9.210938 -5.253906 9.6875 -4.945312 10.03125 -4.5 C 10.382812 -4.0625 10.5625 -3.503906 10.5625 -2.828125 C 10.5625 -1.921875 10.21875 -1.222656 9.53125 -0.734375 C 8.851562 -0.242188 7.863281 0 6.5625 0 L 1.5625 0 L 1.5625 -10.453125 L 6.265625 -10.453125 C 7.453125 -10.453125 8.375 -10.210938 9.03125 -9.734375 C 9.6875 -9.253906 10.015625 -8.59375 10.015625 -7.75 C 10.015625 -7.207031 9.882812 -6.734375 9.625 -6.328125 C 9.375 -5.929688 9.035156 -5.628906 8.609375 -5.421875 Z M 3.0625 -9.25 L 3.0625 -5.90625 L 6.125 -5.90625 C 6.894531 -5.90625 7.484375 -6.046875 7.890625 -6.328125 C 8.304688 -6.609375 8.515625 -7.023438 8.515625 -7.578125 C 8.515625 -8.117188 8.304688 -8.53125 7.890625 -8.8125 C 7.484375 -9.101562 6.894531 -9.25 6.125 -9.25 Z M 6.5 -1.203125 C 7.34375 -1.203125 7.976562 -1.34375 8.40625 -1.625 C 8.832031 -1.90625 9.046875 -2.34375 9.046875 -2.9375 C 9.046875 -4.101562 8.195312 -4.6875 6.5 -4.6875 L 3.0625 -4.6875 L 3.0625 -1.203125 Z M 6.5 -1.203125 "/></g></g></g><g fill="#ffffff" fill-opacity="1"><g transform="translate(184.869997, 237.765805)"><g><path d="M 5.90625 0.125 C 4.507812 0.125 3.421875 -0.269531 2.640625 -1.0625 C 1.867188 -1.863281 1.484375 -3.015625 1.484375 -4.515625 L 1.484375 -10.453125 L 2.96875 -10.453125 L 2.96875 -4.578125 C 2.96875 -2.328125 3.953125 -1.203125 5.921875 -1.203125 C 6.867188 -1.203125 7.597656 -1.476562 8.109375 -2.03125 C 8.617188 -2.59375 8.875 -3.441406 8.875 -4.578125 L 8.875 -10.453125 L 10.328125 -10.453125 L 10.328125 -4.515625 C 10.328125 -3.003906 9.9375 -1.851562 9.15625 -1.0625 C 8.375 -0.269531 7.289062 0.125 5.90625 0.125 Z M 5.90625 0.125 "/></g></g></g><g fill="#ffffff" fill-opacity="1"><g transform="translate(198.233239, 237.765805)"><g><path d="M 3.640625 -9.15625 L 0.0625 -9.15625 L 0.0625 -10.453125 L 8.703125 -10.453125 L 8.703125 -9.15625 L 5.125 -9.15625 L 5.125 0 L 3.640625 0 Z M 3.640625 -9.15625 "/></g></g></g><g fill="#ffffff" fill-opacity="1"><g transform="translate(208.55082, 237.765805)"><g><path d="M 1.5625 -10.453125 L 3.0625 -10.453125 L 3.0625 0 L 1.5625 0 Z M 1.5625 -10.453125 "/></g></g></g><g fill="#ffffff" fill-opacity="1"><g transform="translate(214.732872, 237.765805)"><g><path d="M 6.28125 0.125 C 5.226562 0.125 4.28125 -0.101562 3.4375 -0.5625 C 2.59375 -1.03125 1.925781 -1.671875 1.4375 -2.484375 C 0.957031 -3.304688 0.71875 -4.222656 0.71875 -5.234375 C 0.71875 -6.234375 0.957031 -7.140625 1.4375 -7.953125 C 1.925781 -8.773438 2.59375 -9.414062 3.4375 -9.875 C 4.28125 -10.34375 5.226562 -10.578125 6.28125 -10.578125 C 7.332031 -10.578125 8.28125 -10.34375 9.125 -9.875 C 9.96875 -9.414062 10.628906 -8.78125 11.109375 -7.96875 C 11.585938 -7.15625 11.828125 -6.242188 11.828125 -5.234375 C 11.828125 -4.210938 11.585938 -3.296875 11.109375 -2.484375 C 10.628906 -1.671875 9.96875 -1.03125 9.125 -0.5625 C 8.28125 -0.101562 7.332031 0.125 6.28125 0.125 Z M 6.28125 -1.203125 C 7.050781 -1.203125 7.742188 -1.375 8.359375 -1.71875 C 8.972656 -2.070312 9.457031 -2.554688 9.8125 -3.171875 C 10.164062 -3.785156 10.34375 -4.472656 10.34375 -5.234375 C 10.34375 -5.984375 10.164062 -6.664062 9.8125 -7.28125 C 9.457031 -7.894531 8.972656 -8.375 8.359375 -8.71875 C 7.742188 -9.070312 7.050781 -9.25 6.28125 -9.25 C 5.519531 -9.25 4.828125 -9.070312 4.203125 -8.71875 C 3.578125 -8.375 3.085938 -7.894531 2.734375 -7.28125 C 2.378906 -6.664062 2.203125 -5.984375 2.203125 -5.234375 C 2.203125 -4.472656 2.378906 -3.785156 2.734375 -3.171875 C 3.085938 -2.554688 3.578125 -2.070312 4.203125 -1.71875 C 4.828125 -1.375 5.519531 -1.203125 6.28125 -1.203125 Z M 6.28125 -1.203125 "/></g></g></g><g fill="#ffffff" fill-opacity="1"><g transform="translate(228.827678, 237.765805)"><g><path d="M 10.5625 -10.453125 L 10.5625 0 L 9.328125 0 L 3.0625 -7.796875 L 3.0625 0 L 1.5625 0 L 1.5625 -10.453125 L 2.796875 -10.453125 L 9.0625 -2.65625 L 9.0625 -10.453125 Z M 10.5625 -10.453125 "/></g></g></g><g fill="#ffffff" fill-opacity="1"><g transform="translate(242.504442, 237.765805)"><g/></g></g><g fill="#ffffff" fill-opacity="1"><g transform="translate(248.074396, 237.765805)"><g><path d="M 5.640625 -10.453125 C 6.992188 -10.453125 8.0625 -10.128906 8.84375 -9.484375 C 9.625 -8.835938 10.015625 -7.945312 10.015625 -6.8125 C 10.015625 -5.675781 9.625 -4.785156 8.84375 -4.140625 C 8.0625 -3.492188 6.992188 -3.171875 5.640625 -3.171875 L 3.0625 -3.171875 L 3.0625 0 L 1.5625 0 L 1.5625 -10.453125 Z M 5.59375 -4.46875 C 6.539062 -4.46875 7.265625 -4.664062 7.765625 -5.0625 C 8.265625 -5.46875 8.515625 -6.050781 8.515625 -6.8125 C 8.515625 -7.570312 8.265625 -8.148438 7.765625 -8.546875 C 7.265625 -8.953125 6.539062 -9.15625 5.59375 -9.15625 L 3.0625 -9.15625 L 3.0625 -4.46875 Z M 5.59375 -4.46875 "/></g></g></g><g fill="#ffffff" fill-opacity="1"><g transform="translate(260.407487, 237.765805)"><g><path d="M 1.5625 -10.453125 L 3.0625 -10.453125 L 3.0625 -1.296875 L 8.71875 -1.296875 L 8.71875 0 L 1.5625 0 Z M 1.5625 -10.453125 "/></g></g></g><g fill="#ffffff" fill-opacity="1"><g transform="translate(270.829575, 237.765805)"><g><path d="M 8.234375 -2.609375 L 2.671875 -2.609375 L 1.53125 0 L -0.015625 0 L 4.71875 -10.453125 L 6.203125 -10.453125 L 10.953125 0 L 9.375 0 Z M 7.703125 -3.8125 L 5.453125 -8.9375 L 3.203125 -3.8125 Z M 7.703125 -3.8125 "/></g></g></g><g fill="#ffffff" fill-opacity="1"><g transform="translate(283.311965, 237.765805)"><g><path d="M 3.640625 -9.15625 L 0.0625 -9.15625 L 0.0625 -10.453125 L 8.703125 -10.453125 L 8.703125 -9.15625 L 5.125 -9.15625 L 5.125 0 L 3.640625 0 Z M 3.640625 -9.15625 "/></g></g></g><g fill="#ffffff" fill-opacity="1"><g transform="translate(293.629546, 237.765805)"><g><path d="M 3.0625 -9.15625 L 3.0625 -5.515625 L 8.3125 -5.515625 L 8.3125 -4.234375 L 3.0625 -4.234375 L 3.0625 0 L 1.5625 0 L 1.5625 -10.453125 L 8.953125 -10.453125 L 8.953125 -9.15625 Z M 3.0625 -9.15625 "/></g></g></g><g fill="#ffffff" fill-opacity="1"><g transform="translate(304.663755, 237.765805)"><g><path d="M 6.28125 0.125 C 5.226562 0.125 4.28125 -0.101562 3.4375 -0.5625 C 2.59375 -1.03125 1.925781 -1.671875 1.4375 -2.484375 C 0.957031 -3.304688 0.71875 -4.222656 0.71875 -5.234375 C 0.71875 -6.234375 0.957031 -7.140625 1.4375 -7.953125 C 1.925781 -8.773438 2.59375 -9.414062 3.4375 -9.875 C 4.28125 -10.34375 5.226562 -10.578125 6.28125 -10.578125 C 7.332031 -10.578125 8.28125 -10.34375 9.125 -9.875 C 9.96875 -9.414062 10.628906 -8.78125 11.109375 -7.96875 C 11.585938 -7.15625 11.828125 -6.242188 11.828125 -5.234375 C 11.828125 -4.210938 11.585938 -3.296875 11.109375 -2.484375 C 10.628906 -1.671875 9.96875 -1.03125 9.125 -0.5625 C 8.28125 -0.101562 7.332031 0.125 6.28125 0.125 Z M 6.28125 -1.203125 C 7.050781 -1.203125 7.742188 -1.375 8.359375 -1.71875 C 8.972656 -2.070312 9.457031 -2.554688 9.8125 -3.171875 C 10.164062 -3.785156 10.34375 -4.472656 10.34375 -5.234375 C 10.34375 -5.984375 10.164062 -6.664062 9.8125 -7.28125 C 9.457031 -7.894531 8.972656 -8.375 8.359375 -8.71875 C 7.742188 -9.070312 7.050781 -9.25 6.28125 -9.25 C 5.519531 -9.25 4.828125 -9.070312 4.203125 -8.71875 C 3.578125 -8.375 3.085938 -7.894531 2.734375 -7.28125 C 2.378906 -6.664062 2.203125 -5.984375 2.203125 -5.234375 C 2.203125 -4.472656 2.378906 -3.785156 2.734375 -3.171875 C 3.085938 -2.554688 3.578125 -2.070312 4.203125 -1.71875 C 4.828125 -1.375 5.519531 -1.203125 6.28125 -1.203125 Z M 6.28125 -1.203125 "/></g></g></g><g fill="#ffffff" fill-opacity="1"><g transform="translate(318.758573, 237.765805)"><g><path d="M 8.5625 0 L 6.296875 -3.21875 C 6.023438 -3.195312 5.804688 -3.1875 5.640625 -3.1875 L 3.0625 -3.1875 L 3.0625 0 L 1.5625 0 L 1.5625 -10.453125 L 5.640625 -10.453125 C 6.992188 -10.453125 8.0625 -10.128906 8.84375 -9.484375 C 9.625 -8.835938 10.015625 -7.945312 10.015625 -6.8125 C 10.015625 -6 9.8125 -5.3125 9.40625 -4.75 C 9.007812 -4.1875 8.441406 -3.773438 7.703125 -3.515625 L 10.1875 0 Z M 5.59375 -4.453125 C 6.539062 -4.453125 7.265625 -4.65625 7.765625 -5.0625 C 8.265625 -5.46875 8.515625 -6.050781 8.515625 -6.8125 C 8.515625 -7.570312 8.265625 -8.148438 7.765625 -8.546875 C 7.265625 -8.953125 6.539062 -9.15625 5.59375 -9.15625 L 3.0625 -9.15625 L 3.0625 -4.453125 Z M 5.59375 -4.453125 "/></g></g></g><g fill="#ffffff" fill-opacity="1"><g transform="translate(331.166325, 237.765805)"><g><path d="M 11.265625 0 L 11.25 -7.625 L 7.46875 -1.265625 L 6.78125 -1.265625 L 3 -7.578125 L 3 0 L 1.5625 0 L 1.5625 -10.453125 L 2.796875 -10.453125 L 7.15625 -3.109375 L 11.453125 -10.453125 L 12.6875 -10.453125 L 12.703125 0 Z M 11.265625 0 "/></g></g></g></svg>