<svg xmlns="http://www.w3.org/2000/svg" xmlns:xlink="http://www.w3.org/1999/xlink" width="500" zoomAndPan="magnify" viewBox="0 0 375 374.999991" height="500" preserveAspectRatio="xMidYMid meet" version="1.0"><defs><g/><clipPath id="3bd29a3f32"><path d="M 165 111.546875 L 210.839844 111.546875 L 210.839844 176 L 165 176 Z M 165 111.546875 " clip-rule="nonzero"/></clipPath></defs><rect x="-37.5" width="450" fill="#ffffff" y="-37.499999" height="449.999989" fill-opacity="1"/><rect x="-37.5" width="450" fill="#ffffff" y="-37.499999" height="449.999989" fill-opacity="1"/><g clip-path="url(#3bd29a3f32)"><path fill="#00a848" d="M 166.015625 146.65625 C 165.96875 146.886719 165.917969 147.113281 165.878906 147.339844 C 164.375 156.15625 167.914062 165.640625 174.710938 171.414062 C 175.800781 172.339844 176.972656 173.175781 178.222656 173.890625 C 179.34375 174.535156 180.519531 175.082031 181.738281 175.527344 C 182.816406 175.917969 184.105469 176.207031 185.050781 175.550781 C 185.722656 175.089844 186.039062 174.261719 186.191406 173.460938 C 186.574219 171.46875 186.144531 169.332031 185.019531 167.644531 C 183.933594 166.011719 182.238281 164.789062 181.449219 162.996094 C 180.84375 161.628906 180.835938 160.082031 180.839844 158.589844 C 180.84375 157.585938 180.84375 156.582031 180.84375 155.578125 L 180.863281 145.242188 C 180.875 140.367188 180.882812 135.488281 180.890625 130.613281 C 180.890625 130.109375 180.964844 129.488281 181.429688 129.296875 C 182.199219 128.976562 182.679688 130.140625 182.695312 130.976562 C 182.773438 134.976562 182.792969 138.976562 182.761719 142.980469 C 182.746094 145.28125 182.71875 147.578125 182.667969 149.875 C 182.644531 150.878906 183.019531 152.269531 184.011719 152.128906 C 184.832031 152.015625 185.03125 150.933594 185.027344 150.105469 C 185.011719 147 185 143.890625 184.988281 140.78125 C 184.972656 137.597656 184.957031 134.421875 184.945312 131.238281 C 184.941406 130.328125 185.421875 129.039062 186.277344 129.351562 C 186.824219 129.546875 186.917969 130.269531 186.914062 130.851562 C 186.90625 133.632812 186.890625 136.421875 186.878906 139.203125 C 186.867188 142.691406 186.855469 146.183594 186.835938 149.671875 C 186.835938 150.269531 186.835938 150.890625 187.109375 151.417969 C 187.382812 151.953125 188.015625 152.34375 188.578125 152.140625 C 189.289062 151.882812 189.40625 150.945312 189.40625 150.191406 C 189.410156 145.9375 189.414062 141.679688 189.414062 137.429688 C 189.417969 134.722656 189.421875 132.019531 189.421875 129.3125 C 189.996094 129.183594 190.582031 129.613281 190.832031 130.148438 C 191.085938 130.679688 191.085938 131.296875 191.078125 131.886719 C 191.066406 133.414062 191.050781 134.941406 191.035156 136.46875 C 190.996094 140.773438 190.957031 145.082031 190.917969 149.386719 C 190.914062 150.070312 190.917969 150.792969 191.261719 151.382812 C 191.609375 151.96875 192.429688 152.332031 193 151.953125 C 193.511719 151.609375 193.566406 150.894531 193.566406 150.277344 C 193.582031 145.269531 193.550781 140.257812 193.46875 135.246094 C 193.457031 134.359375 193.445312 133.46875 193.429688 132.578125 C 193.402344 131.21875 193.734375 129.417969 195.085938 129.28125 C 195.097656 131.039062 195.105469 132.800781 195.117188 134.5625 C 195.148438 141.820312 195.183594 149.078125 195.222656 156.335938 C 195.226562 156.871094 195.226562 157.410156 195.230469 157.945312 C 195.238281 159.625 195.238281 161.359375 194.578125 162.902344 C 193.84375 164.613281 192.386719 165.902344 191.425781 167.496094 C 190.402344 169.1875 189.964844 171.226562 190.203125 173.191406 C 190.433594 175.085938 191.605469 175.996094 193.527344 175.628906 C 198.15625 174.753906 202.664062 170.738281 205.421875 167.117188 C 208.375 163.238281 210.257812 158.511719 210.554688 153.628906 C 210.582031 153.238281 210.59375 152.847656 210.597656 152.457031 C 210.609375 151.445312 210.550781 150.433594 210.441406 149.429688 C 210.386719 148.933594 210.324219 148.441406 210.246094 147.953125 C 209.660156 144.398438 208.414062 140.9375 206.8125 137.699219 C 205.933594 135.917969 204.945312 134.195312 203.898438 132.511719 C 202.238281 129.84375 200.421875 127.269531 198.609375 124.707031 C 197.375 122.957031 196.140625 121.210938 194.90625 119.464844 C 193.566406 117.574219 192.230469 115.679688 190.890625 113.785156 C 190.140625 112.726562 189.152344 111.546875 187.859375 111.640625 C 186.738281 111.726562 185.949219 112.738281 185.3125 113.664062 C 182.078125 118.339844 178.84375 123.019531 175.609375 127.695312 C 175.523438 127.824219 175.433594 127.949219 175.347656 128.074219 C 175.347656 128.074219 175.347656 128.078125 175.347656 128.078125 C 171.371094 133.832031 167.371094 139.832031 166.015625 146.65625 " fill-opacity="1" fill-rule="nonzero"/></g><g fill="#00a848" fill-opacity="1"><g transform="translate(83.266355, 215.607216)"><g><path d="M 19.65625 0 L 14.5625 -7.296875 C 14.351562 -7.273438 14.035156 -7.265625 13.609375 -7.265625 L 7.96875 -7.265625 L 7.96875 0 L 3.34375 0 L 3.34375 -24.921875 L 13.609375 -24.921875 C 15.765625 -24.921875 17.644531 -24.566406 19.25 -23.859375 C 20.851562 -23.148438 22.082031 -22.128906 22.9375 -20.796875 C 23.789062 -19.460938 24.21875 -17.882812 24.21875 -16.0625 C 24.21875 -14.1875 23.757812 -12.570312 22.84375 -11.21875 C 21.925781 -9.863281 20.613281 -8.851562 18.90625 -8.1875 L 24.640625 0 Z M 19.546875 -16.0625 C 19.546875 -17.65625 19.023438 -18.878906 17.984375 -19.734375 C 16.941406 -20.585938 15.410156 -21.015625 13.390625 -21.015625 L 7.96875 -21.015625 L 7.96875 -11.078125 L 13.390625 -11.078125 C 15.410156 -11.078125 16.941406 -11.507812 17.984375 -12.375 C 19.023438 -13.238281 19.546875 -14.46875 19.546875 -16.0625 Z M 19.546875 -16.0625 "/></g></g></g><g fill="#00a848" fill-opacity="1"><g transform="translate(107.261255, 215.607216)"><g><path d="M 20.796875 -9.40625 C 20.796875 -9.09375 20.769531 -8.648438 20.71875 -8.078125 L 5.796875 -8.078125 C 6.066406 -6.679688 6.75 -5.570312 7.84375 -4.75 C 8.945312 -3.9375 10.320312 -3.53125 11.96875 -3.53125 C 14.050781 -3.53125 15.769531 -4.21875 17.125 -5.59375 L 19.515625 -2.84375 C 18.660156 -1.820312 17.578125 -1.050781 16.265625 -0.53125 C 14.960938 -0.0078125 13.492188 0.25 11.859375 0.25 C 9.765625 0.25 7.921875 -0.164062 6.328125 -1 C 4.742188 -1.832031 3.519531 -2.988281 2.65625 -4.46875 C 1.789062 -5.945312 1.359375 -7.625 1.359375 -9.5 C 1.359375 -11.351562 1.773438 -13.019531 2.609375 -14.5 C 3.453125 -15.988281 4.625 -17.148438 6.125 -17.984375 C 7.625 -18.816406 9.3125 -19.234375 11.1875 -19.234375 C 13.03125 -19.234375 14.679688 -18.820312 16.140625 -18 C 17.609375 -17.175781 18.75 -16.023438 19.5625 -14.546875 C 20.382812 -13.066406 20.796875 -11.351562 20.796875 -9.40625 Z M 11.1875 -15.671875 C 9.757812 -15.671875 8.550781 -15.25 7.5625 -14.40625 C 6.582031 -13.5625 5.984375 -12.4375 5.765625 -11.03125 L 16.5625 -11.03125 C 16.375 -12.414062 15.789062 -13.535156 14.8125 -14.390625 C 13.84375 -15.242188 12.632812 -15.671875 11.1875 -15.671875 Z M 11.1875 -15.671875 "/></g></g></g><g fill="#00a848" fill-opacity="1"><g transform="translate(127.375601, 215.607216)"><g><path d="M 8.796875 0.25 C 7.253906 0.25 5.742188 0.046875 4.265625 -0.359375 C 2.796875 -0.765625 1.625 -1.273438 0.75 -1.890625 L 2.453125 -5.265625 C 3.304688 -4.703125 4.332031 -4.25 5.53125 -3.90625 C 6.726562 -3.5625 7.910156 -3.390625 9.078125 -3.390625 C 11.734375 -3.390625 13.0625 -4.085938 13.0625 -5.484375 C 13.0625 -6.148438 12.722656 -6.613281 12.046875 -6.875 C 11.367188 -7.132812 10.285156 -7.382812 8.796875 -7.625 C 7.234375 -7.851562 5.957031 -8.125 4.96875 -8.4375 C 3.976562 -8.75 3.117188 -9.289062 2.390625 -10.0625 C 1.671875 -10.832031 1.3125 -11.90625 1.3125 -13.28125 C 1.3125 -15.082031 2.066406 -16.523438 3.578125 -17.609375 C 5.085938 -18.691406 7.125 -19.234375 9.6875 -19.234375 C 10.988281 -19.234375 12.289062 -19.082031 13.59375 -18.78125 C 14.90625 -18.488281 15.976562 -18.09375 16.8125 -17.59375 L 15.09375 -14.203125 C 13.476562 -15.148438 11.664062 -15.625 9.65625 -15.625 C 8.34375 -15.625 7.347656 -15.425781 6.671875 -15.03125 C 5.992188 -14.644531 5.65625 -14.132812 5.65625 -13.5 C 5.65625 -12.78125 6.015625 -12.269531 6.734375 -11.96875 C 7.460938 -11.675781 8.585938 -11.398438 10.109375 -11.140625 C 11.628906 -10.910156 12.875 -10.640625 13.84375 -10.328125 C 14.820312 -10.015625 15.660156 -9.488281 16.359375 -8.75 C 17.054688 -8.019531 17.40625 -6.976562 17.40625 -5.625 C 17.40625 -3.84375 16.632812 -2.414062 15.09375 -1.34375 C 13.550781 -0.28125 11.453125 0.25 8.796875 0.25 Z M 8.796875 0.25 "/></g></g></g><g fill="#00a848" fill-opacity="1"><g transform="translate(143.680587, 215.607216)"><g><path d="M 11.640625 0.25 C 9.671875 0.25 7.898438 -0.164062 6.328125 -1 C 4.765625 -1.832031 3.546875 -2.988281 2.671875 -4.46875 C 1.796875 -5.945312 1.359375 -7.625 1.359375 -9.5 C 1.359375 -11.382812 1.796875 -13.0625 2.671875 -14.53125 C 3.546875 -16 4.757812 -17.148438 6.3125 -17.984375 C 7.875 -18.816406 9.648438 -19.234375 11.640625 -19.234375 C 13.515625 -19.234375 15.15625 -18.851562 16.5625 -18.09375 C 17.976562 -17.332031 19.046875 -16.238281 19.765625 -14.8125 L 16.34375 -12.8125 C 15.800781 -13.695312 15.117188 -14.359375 14.296875 -14.796875 C 13.472656 -15.234375 12.578125 -15.453125 11.609375 -15.453125 C 9.941406 -15.453125 8.5625 -14.910156 7.46875 -13.828125 C 6.382812 -12.753906 5.84375 -11.3125 5.84375 -9.5 C 5.84375 -7.695312 6.378906 -6.253906 7.453125 -5.171875 C 8.535156 -4.097656 9.921875 -3.5625 11.609375 -3.5625 C 12.578125 -3.5625 13.472656 -3.78125 14.296875 -4.21875 C 15.117188 -4.65625 15.800781 -5.316406 16.34375 -6.203125 L 19.765625 -4.203125 C 19.023438 -2.773438 17.945312 -1.675781 16.53125 -0.90625 C 15.125 -0.132812 13.492188 0.25 11.640625 0.25 Z M 11.640625 0.25 "/></g></g></g><g fill="#00a848" fill-opacity="1"><g transform="translate(162.335274, 215.607216)"><g><path d="M 21.328125 -19.015625 L 21.328125 0 L 17.09375 0 L 17.09375 -2.421875 C 16.382812 -1.566406 15.492188 -0.90625 14.421875 -0.4375 C 13.347656 0.0195312 12.195312 0.25 10.96875 0.25 C 8.425781 0.25 6.425781 -0.453125 4.96875 -1.859375 C 3.507812 -3.273438 2.78125 -5.375 2.78125 -8.15625 L 2.78125 -19.015625 L 7.234375 -19.015625 L 7.234375 -8.765625 C 7.234375 -7.054688 7.617188 -5.78125 8.390625 -4.9375 C 9.160156 -4.09375 10.257812 -3.671875 11.6875 -3.671875 C 13.269531 -3.671875 14.53125 -4.160156 15.46875 -5.140625 C 16.40625 -6.128906 16.875 -7.550781 16.875 -9.40625 L 16.875 -19.015625 Z M 21.328125 -19.015625 "/></g></g></g><g fill="#00a848" fill-opacity="1"><g transform="translate(184.550108, 215.607216)"><g><path d="M 20.796875 -9.40625 C 20.796875 -9.09375 20.769531 -8.648438 20.71875 -8.078125 L 5.796875 -8.078125 C 6.066406 -6.679688 6.75 -5.570312 7.84375 -4.75 C 8.945312 -3.9375 10.320312 -3.53125 11.96875 -3.53125 C 14.050781 -3.53125 15.769531 -4.21875 17.125 -5.59375 L 19.515625 -2.84375 C 18.660156 -1.820312 17.578125 -1.050781 16.265625 -0.53125 C 14.960938 -0.0078125 13.492188 0.25 11.859375 0.25 C 9.765625 0.25 7.921875 -0.164062 6.328125 -1 C 4.742188 -1.832031 3.519531 -2.988281 2.65625 -4.46875 C 1.789062 -5.945312 1.359375 -7.625 1.359375 -9.5 C 1.359375 -11.351562 1.773438 -13.019531 2.609375 -14.5 C 3.453125 -15.988281 4.625 -17.148438 6.125 -17.984375 C 7.625 -18.816406 9.3125 -19.234375 11.1875 -19.234375 C 13.03125 -19.234375 14.679688 -18.820312 16.140625 -18 C 17.609375 -17.175781 18.75 -16.023438 19.5625 -14.546875 C 20.382812 -13.066406 20.796875 -11.351562 20.796875 -9.40625 Z M 11.1875 -15.671875 C 9.757812 -15.671875 8.550781 -15.25 7.5625 -14.40625 C 6.582031 -13.5625 5.984375 -12.4375 5.765625 -11.03125 L 16.5625 -11.03125 C 16.375 -12.414062 15.789062 -13.535156 14.8125 -14.390625 C 13.84375 -15.242188 12.632812 -15.671875 11.1875 -15.671875 Z M 11.1875 -15.671875 "/></g></g></g><g fill="#3d4145" fill-opacity="1"><g transform="translate(204.672597, 215.607216)"><g><path d="M 7.96875 -21.046875 L 7.96875 -13.453125 L 20.015625 -13.453125 L 20.015625 -9.546875 L 7.96875 -9.546875 L 7.96875 0 L 3.34375 0 L 3.34375 -24.921875 L 21.546875 -24.921875 L 21.546875 -21.046875 Z M 7.96875 -21.046875 "/></g></g></g><g fill="#3d4145" fill-opacity="1"><g transform="translate(225.320959, 215.607216)"><g><path d="M 11.46875 0.25 C 9.539062 0.25 7.804688 -0.164062 6.265625 -1 C 4.722656 -1.832031 3.519531 -2.988281 2.65625 -4.46875 C 1.789062 -5.945312 1.359375 -7.625 1.359375 -9.5 C 1.359375 -11.382812 1.789062 -13.0625 2.65625 -14.53125 C 3.519531 -16 4.722656 -17.148438 6.265625 -17.984375 C 7.804688 -18.816406 9.539062 -19.234375 11.46875 -19.234375 C 13.414062 -19.234375 15.160156 -18.816406 16.703125 -17.984375 C 18.242188 -17.148438 19.445312 -16 20.3125 -14.53125 C 21.175781 -13.0625 21.609375 -11.382812 21.609375 -9.5 C 21.609375 -7.625 21.175781 -5.945312 20.3125 -4.46875 C 19.445312 -2.988281 18.242188 -1.832031 16.703125 -1 C 15.160156 -0.164062 13.414062 0.25 11.46875 0.25 Z M 11.46875 -3.5625 C 13.101562 -3.5625 14.453125 -4.109375 15.515625 -5.203125 C 16.585938 -6.296875 17.125 -7.726562 17.125 -9.5 C 17.125 -11.28125 16.585938 -12.71875 15.515625 -13.8125 C 14.453125 -14.90625 13.101562 -15.453125 11.46875 -15.453125 C 9.832031 -15.453125 8.484375 -14.90625 7.421875 -13.8125 C 6.367188 -12.71875 5.84375 -11.28125 5.84375 -9.5 C 5.84375 -7.726562 6.367188 -6.296875 7.421875 -5.203125 C 8.484375 -4.109375 9.832031 -3.5625 11.46875 -3.5625 Z M 11.46875 -3.5625 "/></g></g></g><g fill="#3d4145" fill-opacity="1"><g transform="translate(246.254142, 215.607216)"><g><path d="M 11.46875 0.25 C 9.539062 0.25 7.804688 -0.164062 6.265625 -1 C 4.722656 -1.832031 3.519531 -2.988281 2.65625 -4.46875 C 1.789062 -5.945312 1.359375 -7.625 1.359375 -9.5 C 1.359375 -11.382812 1.789062 -13.0625 2.65625 -14.53125 C 3.519531 -16 4.722656 -17.148438 6.265625 -17.984375 C 7.804688 -18.816406 9.539062 -19.234375 11.46875 -19.234375 C 13.414062 -19.234375 15.160156 -18.816406 16.703125 -17.984375 C 18.242188 -17.148438 19.445312 -16 20.3125 -14.53125 C 21.175781 -13.0625 21.609375 -11.382812 21.609375 -9.5 C 21.609375 -7.625 21.175781 -5.945312 20.3125 -4.46875 C 19.445312 -2.988281 18.242188 -1.832031 16.703125 -1 C 15.160156 -0.164062 13.414062 0.25 11.46875 0.25 Z M 11.46875 -3.5625 C 13.101562 -3.5625 14.453125 -4.109375 15.515625 -5.203125 C 16.585938 -6.296875 17.125 -7.726562 17.125 -9.5 C 17.125 -11.28125 16.585938 -12.71875 15.515625 -13.8125 C 14.453125 -14.90625 13.101562 -15.453125 11.46875 -15.453125 C 9.832031 -15.453125 8.484375 -14.90625 7.421875 -13.8125 C 6.367188 -12.71875 5.84375 -11.28125 5.84375 -9.5 C 5.84375 -7.726562 6.367188 -6.296875 7.421875 -5.203125 C 8.484375 -4.109375 9.832031 -3.5625 11.46875 -3.5625 Z M 11.46875 -3.5625 "/></g></g></g><g fill="#3d4145" fill-opacity="1"><g transform="translate(267.187324, 215.607216)"><g><path d="M 21.546875 -26.421875 L 21.546875 0 L 17.265625 0 L 17.265625 -2.453125 C 16.535156 -1.554688 15.628906 -0.878906 14.546875 -0.421875 C 13.460938 0.0234375 12.269531 0.25 10.96875 0.25 C 9.132812 0.25 7.488281 -0.148438 6.03125 -0.953125 C 4.570312 -1.765625 3.425781 -2.910156 2.59375 -4.390625 C 1.769531 -5.878906 1.359375 -7.582031 1.359375 -9.5 C 1.359375 -11.425781 1.769531 -13.125 2.59375 -14.59375 C 3.425781 -16.070312 4.570312 -17.210938 6.03125 -18.015625 C 7.488281 -18.828125 9.132812 -19.234375 10.96875 -19.234375 C 12.226562 -19.234375 13.378906 -19.019531 14.421875 -18.59375 C 15.460938 -18.164062 16.351562 -17.523438 17.09375 -16.671875 L 17.09375 -26.421875 Z M 11.5 -3.5625 C 12.570312 -3.5625 13.535156 -3.800781 14.390625 -4.28125 C 15.242188 -4.769531 15.914062 -5.46875 16.40625 -6.375 C 16.90625 -7.28125 17.15625 -8.320312 17.15625 -9.5 C 17.15625 -10.6875 16.90625 -11.734375 16.40625 -12.640625 C 15.914062 -13.546875 15.242188 -14.238281 14.390625 -14.71875 C 13.535156 -15.207031 12.570312 -15.453125 11.5 -15.453125 C 10.4375 -15.453125 9.472656 -15.207031 8.609375 -14.71875 C 7.753906 -14.238281 7.078125 -13.546875 6.578125 -12.640625 C 6.085938 -11.734375 5.84375 -10.6875 5.84375 -9.5 C 5.84375 -8.320312 6.085938 -7.28125 6.578125 -6.375 C 7.078125 -5.46875 7.753906 -4.769531 8.609375 -4.28125 C 9.472656 -3.800781 10.4375 -3.5625 11.5 -3.5625 Z M 11.5 -3.5625 "/></g></g></g><g fill="#3d4145" fill-opacity="1"><g transform="translate(88.82115, 232.280186)"><g><path d="M 1.90625 -5.71875 L 1.90625 -3.4375 L 5.1875 -3.4375 L 5.1875 -2.640625 L 1.90625 -2.640625 L 1.90625 0 L 0.984375 0 L 0.984375 -6.53125 L 5.59375 -6.53125 L 5.59375 -5.71875 Z M 1.90625 -5.71875 "/></g></g></g><g fill="#3d4145" fill-opacity="1"><g transform="translate(95.714988, 232.280186)"><g><path d="M 3.921875 0.078125 C 3.265625 0.078125 2.671875 -0.0664062 2.140625 -0.359375 C 1.617188 -0.648438 1.207031 -1.050781 0.90625 -1.5625 C 0.601562 -2.070312 0.453125 -2.640625 0.453125 -3.265625 C 0.453125 -3.890625 0.601562 -4.457031 0.90625 -4.96875 C 1.207031 -5.476562 1.617188 -5.878906 2.140625 -6.171875 C 2.671875 -6.460938 3.265625 -6.609375 3.921875 -6.609375 C 4.578125 -6.609375 5.171875 -6.460938 5.703125 -6.171875 C 6.234375 -5.878906 6.644531 -5.476562 6.9375 -4.96875 C 7.238281 -4.46875 7.390625 -3.898438 7.390625 -3.265625 C 7.390625 -2.628906 7.238281 -2.054688 6.9375 -1.546875 C 6.644531 -1.046875 6.234375 -0.648438 5.703125 -0.359375 C 5.171875 -0.0664062 4.578125 0.078125 3.921875 0.078125 Z M 3.921875 -0.75 C 4.398438 -0.75 4.832031 -0.859375 5.21875 -1.078125 C 5.601562 -1.296875 5.90625 -1.597656 6.125 -1.984375 C 6.34375 -2.367188 6.453125 -2.796875 6.453125 -3.265625 C 6.453125 -3.734375 6.34375 -4.160156 6.125 -4.546875 C 5.90625 -4.929688 5.601562 -5.234375 5.21875 -5.453125 C 4.832031 -5.671875 4.398438 -5.78125 3.921875 -5.78125 C 3.441406 -5.78125 3.007812 -5.671875 2.625 -5.453125 C 2.238281 -5.234375 1.929688 -4.929688 1.703125 -4.546875 C 1.484375 -4.160156 1.375 -3.734375 1.375 -3.265625 C 1.375 -2.796875 1.484375 -2.367188 1.703125 -1.984375 C 1.929688 -1.597656 2.238281 -1.296875 2.625 -1.078125 C 3.007812 -0.859375 3.441406 -0.75 3.921875 -0.75 Z M 3.921875 -0.75 "/></g></g></g><g fill="#3d4145" fill-opacity="1"><g transform="translate(104.52111, 232.280186)"><g><path d="M 3.921875 0.078125 C 3.265625 0.078125 2.671875 -0.0664062 2.140625 -0.359375 C 1.617188 -0.648438 1.207031 -1.050781 0.90625 -1.5625 C 0.601562 -2.070312 0.453125 -2.640625 0.453125 -3.265625 C 0.453125 -3.890625 0.601562 -4.457031 0.90625 -4.96875 C 1.207031 -5.476562 1.617188 -5.878906 2.140625 -6.171875 C 2.671875 -6.460938 3.265625 -6.609375 3.921875 -6.609375 C 4.578125 -6.609375 5.171875 -6.460938 5.703125 -6.171875 C 6.234375 -5.878906 6.644531 -5.476562 6.9375 -4.96875 C 7.238281 -4.46875 7.390625 -3.898438 7.390625 -3.265625 C 7.390625 -2.628906 7.238281 -2.054688 6.9375 -1.546875 C 6.644531 -1.046875 6.234375 -0.648438 5.703125 -0.359375 C 5.171875 -0.0664062 4.578125 0.078125 3.921875 0.078125 Z M 3.921875 -0.75 C 4.398438 -0.75 4.832031 -0.859375 5.21875 -1.078125 C 5.601562 -1.296875 5.90625 -1.597656 6.125 -1.984375 C 6.34375 -2.367188 6.453125 -2.796875 6.453125 -3.265625 C 6.453125 -3.734375 6.34375 -4.160156 6.125 -4.546875 C 5.90625 -4.929688 5.601562 -5.234375 5.21875 -5.453125 C 4.832031 -5.671875 4.398438 -5.78125 3.921875 -5.78125 C 3.441406 -5.78125 3.007812 -5.671875 2.625 -5.453125 C 2.238281 -5.234375 1.929688 -4.929688 1.703125 -4.546875 C 1.484375 -4.160156 1.375 -3.734375 1.375 -3.265625 C 1.375 -2.796875 1.484375 -2.367188 1.703125 -1.984375 C 1.929688 -1.597656 2.238281 -1.296875 2.625 -1.078125 C 3.007812 -0.859375 3.441406 -0.75 3.921875 -0.75 Z M 3.921875 -0.75 "/></g></g></g><g fill="#3d4145" fill-opacity="1"><g transform="translate(113.327232, 232.280186)"><g><path d="M 0.984375 -6.53125 L 3.734375 -6.53125 C 4.421875 -6.53125 5.03125 -6.390625 5.5625 -6.109375 C 6.101562 -5.835938 6.519531 -5.453125 6.8125 -4.953125 C 7.101562 -4.460938 7.25 -3.898438 7.25 -3.265625 C 7.25 -2.617188 7.101562 -2.050781 6.8125 -1.5625 C 6.519531 -1.070312 6.101562 -0.6875 5.5625 -0.40625 C 5.03125 -0.132812 4.421875 0 3.734375 0 L 0.984375 0 Z M 3.671875 -0.8125 C 4.203125 -0.8125 4.664062 -0.910156 5.0625 -1.109375 C 5.46875 -1.316406 5.78125 -1.601562 6 -1.96875 C 6.21875 -2.34375 6.328125 -2.773438 6.328125 -3.265625 C 6.328125 -3.753906 6.21875 -4.179688 6 -4.546875 C 5.78125 -4.921875 5.46875 -5.207031 5.0625 -5.40625 C 4.664062 -5.613281 4.203125 -5.71875 3.671875 -5.71875 L 1.90625 -5.71875 L 1.90625 -0.8125 Z M 3.671875 -0.8125 "/></g></g></g><g fill="#3d4145" fill-opacity="1"><g transform="translate(122.002754, 232.280186)"><g/></g></g><g fill="#3d4145" fill-opacity="1"><g transform="translate(125.482476, 232.280186)"><g><path d="M 5.34375 0 L 3.9375 -2 C 3.757812 -1.988281 3.625 -1.984375 3.53125 -1.984375 L 1.90625 -1.984375 L 1.90625 0 L 0.984375 0 L 0.984375 -6.53125 L 3.53125 -6.53125 C 4.375 -6.53125 5.035156 -6.328125 5.515625 -5.921875 C 6.003906 -5.515625 6.25 -4.957031 6.25 -4.25 C 6.25 -3.75 6.125 -3.320312 5.875 -2.96875 C 5.625 -2.613281 5.269531 -2.351562 4.8125 -2.1875 L 6.359375 0 Z M 3.5 -2.78125 C 4.09375 -2.78125 4.539062 -2.90625 4.84375 -3.15625 C 5.15625 -3.414062 5.3125 -3.78125 5.3125 -4.25 C 5.3125 -4.726562 5.15625 -5.09375 4.84375 -5.34375 C 4.539062 -5.59375 4.09375 -5.71875 3.5 -5.71875 L 1.90625 -5.71875 L 1.90625 -2.78125 Z M 3.5 -2.78125 "/></g></g></g><g fill="#3d4145" fill-opacity="1"><g transform="translate(133.234518, 232.280186)"><g><path d="M 5.71875 -0.8125 L 5.71875 0 L 0.984375 0 L 0.984375 -6.53125 L 5.59375 -6.53125 L 5.59375 -5.71875 L 1.90625 -5.71875 L 1.90625 -3.71875 L 5.1875 -3.71875 L 5.1875 -2.921875 L 1.90625 -2.921875 L 1.90625 -0.8125 Z M 5.71875 -0.8125 "/></g></g></g><g fill="#3d4145" fill-opacity="1"><g transform="translate(140.454841, 232.280186)"><g><path d="M 0.984375 -6.53125 L 3.734375 -6.53125 C 4.421875 -6.53125 5.03125 -6.390625 5.5625 -6.109375 C 6.101562 -5.835938 6.519531 -5.453125 6.8125 -4.953125 C 7.101562 -4.460938 7.25 -3.898438 7.25 -3.265625 C 7.25 -2.617188 7.101562 -2.050781 6.8125 -1.5625 C 6.519531 -1.070312 6.101562 -0.6875 5.5625 -0.40625 C 5.03125 -0.132812 4.421875 0 3.734375 0 L 0.984375 0 Z M 3.671875 -0.8125 C 4.203125 -0.8125 4.664062 -0.910156 5.0625 -1.109375 C 5.46875 -1.316406 5.78125 -1.601562 6 -1.96875 C 6.21875 -2.34375 6.328125 -2.773438 6.328125 -3.265625 C 6.328125 -3.753906 6.21875 -4.179688 6 -4.546875 C 5.78125 -4.921875 5.46875 -5.207031 5.0625 -5.40625 C 4.664062 -5.613281 4.203125 -5.71875 3.671875 -5.71875 L 1.90625 -5.71875 L 1.90625 -0.8125 Z M 3.671875 -0.8125 "/></g></g></g><g fill="#3d4145" fill-opacity="1"><g transform="translate(149.130366, 232.280186)"><g><path d="M 0.984375 -6.53125 L 1.90625 -6.53125 L 1.90625 0 L 0.984375 0 Z M 0.984375 -6.53125 "/></g></g></g><g fill="#3d4145" fill-opacity="1"><g transform="translate(152.992552, 232.280186)"><g><path d="M 2.875 0.078125 C 2.382812 0.078125 1.910156 0.00390625 1.453125 -0.140625 C 1.003906 -0.296875 0.644531 -0.5 0.375 -0.75 L 0.734375 -1.46875 C 0.972656 -1.25 1.285156 -1.066406 1.671875 -0.921875 C 2.066406 -0.785156 2.46875 -0.71875 2.875 -0.71875 C 3.414062 -0.71875 3.820312 -0.804688 4.09375 -0.984375 C 4.363281 -1.171875 4.5 -1.414062 4.5 -1.71875 C 4.5 -1.945312 4.425781 -2.128906 4.28125 -2.265625 C 4.132812 -2.410156 3.953125 -2.519531 3.734375 -2.59375 C 3.523438 -2.664062 3.222656 -2.75 2.828125 -2.84375 C 2.335938 -2.957031 1.941406 -3.070312 1.640625 -3.1875 C 1.335938 -3.3125 1.078125 -3.492188 0.859375 -3.734375 C 0.648438 -3.984375 0.546875 -4.316406 0.546875 -4.734375 C 0.546875 -5.085938 0.632812 -5.398438 0.8125 -5.671875 C 1 -5.953125 1.273438 -6.175781 1.640625 -6.34375 C 2.015625 -6.519531 2.484375 -6.609375 3.046875 -6.609375 C 3.429688 -6.609375 3.804688 -6.554688 4.171875 -6.453125 C 4.546875 -6.359375 4.867188 -6.21875 5.140625 -6.03125 L 4.828125 -5.28125 C 4.554688 -5.457031 4.265625 -5.585938 3.953125 -5.671875 C 3.640625 -5.765625 3.335938 -5.8125 3.046875 -5.8125 C 2.515625 -5.8125 2.113281 -5.710938 1.84375 -5.515625 C 1.582031 -5.328125 1.453125 -5.082031 1.453125 -4.78125 C 1.453125 -4.550781 1.523438 -4.363281 1.671875 -4.21875 C 1.828125 -4.082031 2.015625 -3.972656 2.234375 -3.890625 C 2.453125 -3.816406 2.753906 -3.738281 3.140625 -3.65625 C 3.628906 -3.539062 4.019531 -3.421875 4.3125 -3.296875 C 4.613281 -3.179688 4.867188 -3 5.078125 -2.75 C 5.296875 -2.507812 5.40625 -2.1875 5.40625 -1.78125 C 5.40625 -1.4375 5.3125 -1.125 5.125 -0.84375 C 4.9375 -0.5625 4.65625 -0.335938 4.28125 -0.171875 C 3.90625 -0.00390625 3.4375 0.078125 2.875 0.078125 Z M 2.875 0.078125 "/></g></g></g><g fill="#3d4145" fill-opacity="1"><g transform="translate(159.755804, 232.280186)"><g><path d="M 2.28125 -5.71875 L 0.03125 -5.71875 L 0.03125 -6.53125 L 5.4375 -6.53125 L 5.4375 -5.71875 L 3.203125 -5.71875 L 3.203125 0 L 2.28125 0 Z M 2.28125 -5.71875 "/></g></g></g><g fill="#3d4145" fill-opacity="1"><g transform="translate(166.201894, 232.280186)"><g><path d="M 5.34375 0 L 3.9375 -2 C 3.757812 -1.988281 3.625 -1.984375 3.53125 -1.984375 L 1.90625 -1.984375 L 1.90625 0 L 0.984375 0 L 0.984375 -6.53125 L 3.53125 -6.53125 C 4.375 -6.53125 5.035156 -6.328125 5.515625 -5.921875 C 6.003906 -5.515625 6.25 -4.957031 6.25 -4.25 C 6.25 -3.75 6.125 -3.320312 5.875 -2.96875 C 5.625 -2.613281 5.269531 -2.351562 4.8125 -2.1875 L 6.359375 0 Z M 3.5 -2.78125 C 4.09375 -2.78125 4.539062 -2.90625 4.84375 -3.15625 C 5.15625 -3.414062 5.3125 -3.78125 5.3125 -4.25 C 5.3125 -4.726562 5.15625 -5.09375 4.84375 -5.34375 C 4.539062 -5.59375 4.09375 -5.71875 3.5 -5.71875 L 1.90625 -5.71875 L 1.90625 -2.78125 Z M 3.5 -2.78125 "/></g></g></g><g fill="#3d4145" fill-opacity="1"><g transform="translate(173.953938, 232.280186)"><g><path d="M 0.984375 -6.53125 L 1.90625 -6.53125 L 1.90625 0 L 0.984375 0 Z M 0.984375 -6.53125 "/></g></g></g><g fill="#3d4145" fill-opacity="1"><g transform="translate(177.816124, 232.280186)"><g><path d="M 5.375 -3.390625 C 5.75 -3.285156 6.046875 -3.09375 6.265625 -2.8125 C 6.484375 -2.53125 6.59375 -2.179688 6.59375 -1.765625 C 6.59375 -1.203125 6.378906 -0.765625 5.953125 -0.453125 C 5.523438 -0.148438 4.90625 0 4.09375 0 L 0.984375 0 L 0.984375 -6.53125 L 3.90625 -6.53125 C 4.65625 -6.53125 5.234375 -6.378906 5.640625 -6.078125 C 6.046875 -5.785156 6.25 -5.375 6.25 -4.84375 C 6.25 -4.5 6.171875 -4.203125 6.015625 -3.953125 C 5.859375 -3.703125 5.644531 -3.515625 5.375 -3.390625 Z M 1.90625 -5.78125 L 1.90625 -3.6875 L 3.828125 -3.6875 C 4.304688 -3.6875 4.671875 -3.773438 4.921875 -3.953125 C 5.179688 -4.128906 5.3125 -4.390625 5.3125 -4.734375 C 5.3125 -5.078125 5.179688 -5.335938 4.921875 -5.515625 C 4.671875 -5.691406 4.304688 -5.78125 3.828125 -5.78125 Z M 4.0625 -0.75 C 4.582031 -0.75 4.976562 -0.835938 5.25 -1.015625 C 5.519531 -1.191406 5.65625 -1.46875 5.65625 -1.84375 C 5.65625 -2.5625 5.125 -2.921875 4.0625 -2.921875 L 1.90625 -2.921875 L 1.90625 -0.75 Z M 4.0625 -0.75 "/></g></g></g><g fill="#3d4145" fill-opacity="1"><g transform="translate(185.848011, 232.280186)"><g><path d="M 3.6875 0.078125 C 2.8125 0.078125 2.128906 -0.171875 1.640625 -0.671875 C 1.160156 -1.171875 0.921875 -1.882812 0.921875 -2.8125 L 0.921875 -6.53125 L 1.859375 -6.53125 L 1.859375 -2.859375 C 1.859375 -1.453125 2.46875 -0.75 3.6875 -0.75 C 4.289062 -0.75 4.75 -0.921875 5.0625 -1.265625 C 5.382812 -1.617188 5.546875 -2.148438 5.546875 -2.859375 L 5.546875 -6.53125 L 6.453125 -6.53125 L 6.453125 -2.8125 C 6.453125 -1.875 6.207031 -1.15625 5.71875 -0.65625 C 5.226562 -0.164062 4.550781 0.078125 3.6875 0.078125 Z M 3.6875 0.078125 "/></g></g></g><g fill="#3d4145" fill-opacity="1"><g transform="translate(194.197059, 232.280186)"><g><path d="M 2.28125 -5.71875 L 0.03125 -5.71875 L 0.03125 -6.53125 L 5.4375 -6.53125 L 5.4375 -5.71875 L 3.203125 -5.71875 L 3.203125 0 L 2.28125 0 Z M 2.28125 -5.71875 "/></g></g></g><g fill="#3d4145" fill-opacity="1"><g transform="translate(200.643149, 232.280186)"><g><path d="M 0.984375 -6.53125 L 1.90625 -6.53125 L 1.90625 0 L 0.984375 0 Z M 0.984375 -6.53125 "/></g></g></g><g fill="#3d4145" fill-opacity="1"><g transform="translate(204.505335, 232.280186)"><g><path d="M 3.921875 0.078125 C 3.265625 0.078125 2.671875 -0.0664062 2.140625 -0.359375 C 1.617188 -0.648438 1.207031 -1.050781 0.90625 -1.5625 C 0.601562 -2.070312 0.453125 -2.640625 0.453125 -3.265625 C 0.453125 -3.890625 0.601562 -4.457031 0.90625 -4.96875 C 1.207031 -5.476562 1.617188 -5.878906 2.140625 -6.171875 C 2.671875 -6.460938 3.265625 -6.609375 3.921875 -6.609375 C 4.578125 -6.609375 5.171875 -6.460938 5.703125 -6.171875 C 6.234375 -5.878906 6.644531 -5.476562 6.9375 -4.96875 C 7.238281 -4.46875 7.390625 -3.898438 7.390625 -3.265625 C 7.390625 -2.628906 7.238281 -2.054688 6.9375 -1.546875 C 6.644531 -1.046875 6.234375 -0.648438 5.703125 -0.359375 C 5.171875 -0.0664062 4.578125 0.078125 3.921875 0.078125 Z M 3.921875 -0.75 C 4.398438 -0.75 4.832031 -0.859375 5.21875 -1.078125 C 5.601562 -1.296875 5.90625 -1.597656 6.125 -1.984375 C 6.34375 -2.367188 6.453125 -2.796875 6.453125 -3.265625 C 6.453125 -3.734375 6.34375 -4.160156 6.125 -4.546875 C 5.90625 -4.929688 5.601562 -5.234375 5.21875 -5.453125 C 4.832031 -5.671875 4.398438 -5.78125 3.921875 -5.78125 C 3.441406 -5.78125 3.007812 -5.671875 2.625 -5.453125 C 2.238281 -5.234375 1.929688 -4.929688 1.703125 -4.546875 C 1.484375 -4.160156 1.375 -3.734375 1.375 -3.265625 C 1.375 -2.796875 1.484375 -2.367188 1.703125 -1.984375 C 1.929688 -1.597656 2.238281 -1.296875 2.625 -1.078125 C 3.007812 -0.859375 3.441406 -0.75 3.921875 -0.75 Z M 3.921875 -0.75 "/></g></g></g><g fill="#3d4145" fill-opacity="1"><g transform="translate(213.31146, 232.280186)"><g><path d="M 6.59375 -6.53125 L 6.59375 0 L 5.828125 0 L 1.90625 -4.875 L 1.90625 0 L 0.984375 0 L 0.984375 -6.53125 L 1.75 -6.53125 L 5.65625 -1.65625 L 5.65625 -6.53125 Z M 6.59375 -6.53125 "/></g></g></g><g fill="#3d4145" fill-opacity="1"><g transform="translate(221.856397, 232.280186)"><g/></g></g><g fill="#3d4145" fill-opacity="1"><g transform="translate(225.336122, 232.280186)"><g><path d="M 3.53125 -6.53125 C 4.375 -6.53125 5.035156 -6.328125 5.515625 -5.921875 C 6.003906 -5.515625 6.25 -4.957031 6.25 -4.25 C 6.25 -3.539062 6.003906 -2.984375 5.515625 -2.578125 C 5.035156 -2.179688 4.375 -1.984375 3.53125 -1.984375 L 1.90625 -1.984375 L 1.90625 0 L 0.984375 0 L 0.984375 -6.53125 Z M 3.5 -2.796875 C 4.09375 -2.796875 4.539062 -2.921875 4.84375 -3.171875 C 5.15625 -3.421875 5.3125 -3.78125 5.3125 -4.25 C 5.3125 -4.726562 5.15625 -5.09375 4.84375 -5.34375 C 4.539062 -5.59375 4.09375 -5.71875 3.5 -5.71875 L 1.90625 -5.71875 L 1.90625 -2.796875 Z M 3.5 -2.796875 "/></g></g></g><g fill="#3d4145" fill-opacity="1"><g transform="translate(233.04152, 232.280186)"><g><path d="M 0.984375 -6.53125 L 1.90625 -6.53125 L 1.90625 -0.8125 L 5.453125 -0.8125 L 5.453125 0 L 0.984375 0 Z M 0.984375 -6.53125 "/></g></g></g><g fill="#3d4145" fill-opacity="1"><g transform="translate(239.55291, 232.280186)"><g><path d="M 5.140625 -1.625 L 1.671875 -1.625 L 0.953125 0 L -0.015625 0 L 2.953125 -6.53125 L 3.875 -6.53125 L 6.84375 0 L 5.859375 0 Z M 4.8125 -2.375 L 3.40625 -5.578125 L 2 -2.375 Z M 4.8125 -2.375 "/></g></g></g><g fill="#3d4145" fill-opacity="1"><g transform="translate(247.351589, 232.280186)"><g><path d="M 2.28125 -5.71875 L 0.03125 -5.71875 L 0.03125 -6.53125 L 5.4375 -6.53125 L 5.4375 -5.71875 L 3.203125 -5.71875 L 3.203125 0 L 2.28125 0 Z M 2.28125 -5.71875 "/></g></g></g><g fill="#3d4145" fill-opacity="1"><g transform="translate(253.797679, 232.280186)"><g><path d="M 1.90625 -5.71875 L 1.90625 -3.4375 L 5.1875 -3.4375 L 5.1875 -2.640625 L 1.90625 -2.640625 L 1.90625 0 L 0.984375 0 L 0.984375 -6.53125 L 5.59375 -6.53125 L 5.59375 -5.71875 Z M 1.90625 -5.71875 "/></g></g></g><g fill="#3d4145" fill-opacity="1"><g transform="translate(260.691519, 232.280186)"><g><path d="M 3.921875 0.078125 C 3.265625 0.078125 2.671875 -0.0664062 2.140625 -0.359375 C 1.617188 -0.648438 1.207031 -1.050781 0.90625 -1.5625 C 0.601562 -2.070312 0.453125 -2.640625 0.453125 -3.265625 C 0.453125 -3.890625 0.601562 -4.457031 0.90625 -4.96875 C 1.207031 -5.476562 1.617188 -5.878906 2.140625 -6.171875 C 2.671875 -6.460938 3.265625 -6.609375 3.921875 -6.609375 C 4.578125 -6.609375 5.171875 -6.460938 5.703125 -6.171875 C 6.234375 -5.878906 6.644531 -5.476562 6.9375 -4.96875 C 7.238281 -4.46875 7.390625 -3.898438 7.390625 -3.265625 C 7.390625 -2.628906 7.238281 -2.054688 6.9375 -1.546875 C 6.644531 -1.046875 6.234375 -0.648438 5.703125 -0.359375 C 5.171875 -0.0664062 4.578125 0.078125 3.921875 0.078125 Z M 3.921875 -0.75 C 4.398438 -0.75 4.832031 -0.859375 5.21875 -1.078125 C 5.601562 -1.296875 5.90625 -1.597656 6.125 -1.984375 C 6.34375 -2.367188 6.453125 -2.796875 6.453125 -3.265625 C 6.453125 -3.734375 6.34375 -4.160156 6.125 -4.546875 C 5.90625 -4.929688 5.601562 -5.234375 5.21875 -5.453125 C 4.832031 -5.671875 4.398438 -5.78125 3.921875 -5.78125 C 3.441406 -5.78125 3.007812 -5.671875 2.625 -5.453125 C 2.238281 -5.234375 1.929688 -4.929688 1.703125 -4.546875 C 1.484375 -4.160156 1.375 -3.734375 1.375 -3.265625 C 1.375 -2.796875 1.484375 -2.367188 1.703125 -1.984375 C 1.929688 -1.597656 2.238281 -1.296875 2.625 -1.078125 C 3.007812 -0.859375 3.441406 -0.75 3.921875 -0.75 Z M 3.921875 -0.75 "/></g></g></g><g fill="#3d4145" fill-opacity="1"><g transform="translate(269.497644, 232.280186)"><g><path d="M 5.34375 0 L 3.9375 -2 C 3.757812 -1.988281 3.625 -1.984375 3.53125 -1.984375 L 1.90625 -1.984375 L 1.90625 0 L 0.984375 0 L 0.984375 -6.53125 L 3.53125 -6.53125 C 4.375 -6.53125 5.035156 -6.328125 5.515625 -5.921875 C 6.003906 -5.515625 6.25 -4.957031 6.25 -4.25 C 6.25 -3.75 6.125 -3.320312 5.875 -2.96875 C 5.625 -2.613281 5.269531 -2.351562 4.8125 -2.1875 L 6.359375 0 Z M 3.5 -2.78125 C 4.09375 -2.78125 4.539062 -2.90625 4.84375 -3.15625 C 5.15625 -3.414062 5.3125 -3.78125 5.3125 -4.25 C 5.3125 -4.726562 5.15625 -5.09375 4.84375 -5.34375 C 4.539062 -5.59375 4.09375 -5.71875 3.5 -5.71875 L 1.90625 -5.71875 L 1.90625 -2.78125 Z M 3.5 -2.78125 "/></g></g></g><g fill="#3d4145" fill-opacity="1"><g transform="translate(277.249689, 232.280186)"><g><path d="M 7.03125 0 L 7.03125 -4.75 L 4.671875 -0.796875 L 4.234375 -0.796875 L 1.875 -4.734375 L 1.875 0 L 0.984375 0 L 0.984375 -6.53125 L 1.75 -6.53125 L 4.46875 -1.9375 L 7.15625 -6.53125 L 7.921875 -6.53125 L 7.921875 0 Z M 7.03125 0 "/></g></g></g></svg>