<svg xmlns="http://www.w3.org/2000/svg" xmlns:xlink="http://www.w3.org/1999/xlink" width="500" zoomAndPan="magnify" viewBox="0 0 375 374.999991" height="500" preserveAspectRatio="xMidYMid meet" version="1.0"><defs><g/><clipPath id="0d8e253993"><path d="M 254 196 L 274 196 L 274 217 L 254 217 Z M 254 196 " clip-rule="nonzero"/></clipPath><clipPath id="df4578092e"><path d="M 265.253906 196.492188 L 273.632812 204.382812 L 262.625 216.074219 L 254.246094 208.183594 Z M 265.253906 196.492188 " clip-rule="nonzero"/></clipPath><clipPath id="5c7ef2f21c"><path d="M 261.574219 182.246094 L 288.175781 182.246094 L 288.175781 208.847656 L 261.574219 208.847656 Z M 261.574219 182.246094 " clip-rule="nonzero"/></clipPath><clipPath id="a59d57e9b1"><path d="M 274.875 182.246094 C 267.527344 182.246094 261.574219 188.199219 261.574219 195.546875 C 261.574219 202.890625 267.527344 208.847656 274.875 208.847656 C 282.21875 208.847656 288.175781 202.890625 288.175781 195.546875 C 288.175781 188.199219 282.21875 182.246094 274.875 182.246094 Z M 274.875 182.246094 " clip-rule="nonzero"/></clipPath><clipPath id="45d98fc0c8"><path d="M 252 188.835938 L 281.457031 188.835938 L 281.457031 218.835938 L 252 218.835938 Z M 252 188.835938 " clip-rule="nonzero"/></clipPath></defs><rect x="-37.5" width="450" fill="#ffffff" y="-37.499999" height="449.999989" fill-opacity="1"/><rect x="-37.5" width="450" fill="#ffffff" y="-37.499999" height="449.999989" fill-opacity="1"/><g fill="#2e9841" fill-opacity="1"><g transform="translate(-3.842587, 211.747935)"><g><path d="M 30.09375 0 L 21.296875 -15.46875 L 15.015625 -15.46875 L 15.015625 0 L 5.171875 0 L 5.171875 -45.3125 L 23.5 -45.3125 C 26.519531 -45.3125 29.21875 -44.664062 31.59375 -43.375 C 33.96875 -42.082031 35.84375 -40.3125 37.21875 -38.0625 C 38.601562 -35.820312 39.296875 -33.234375 39.296875 -30.296875 C 39.296875 -27.359375 38.550781 -24.734375 37.0625 -22.421875 C 35.570312 -20.117188 33.578125 -18.363281 31.078125 -17.15625 L 41.109375 0 Z M 15.015625 -36.25 L 15.015625 -24.53125 L 22.84375 -24.53125 C 24.875 -24.53125 26.472656 -25.078125 27.640625 -26.171875 C 28.804688 -27.273438 29.390625 -28.671875 29.390625 -30.359375 C 29.390625 -32.085938 28.804688 -33.5 27.640625 -34.59375 C 26.472656 -35.695312 24.875 -36.25 22.84375 -36.25 Z M 15.015625 -36.25 "/></g></g></g><g fill="#2e9841" fill-opacity="1"><g transform="translate(35.246482, 211.747935)"><g><path d="M 38.453125 -17.609375 C 38.453125 -16.703125 38.390625 -15.773438 38.265625 -14.828125 L 11.84375 -14.828125 C 12.226562 -12.453125 13.175781 -10.625 14.6875 -9.34375 C 16.195312 -8.070312 18.097656 -7.4375 20.390625 -7.4375 C 22.023438 -7.4375 23.488281 -7.789062 24.78125 -8.5 C 26.082031 -9.21875 27.078125 -10.203125 27.765625 -11.453125 L 37.734375 -11.453125 C 36.441406 -7.660156 34.238281 -4.640625 31.125 -2.390625 C 28.019531 -0.148438 24.441406 0.96875 20.390625 0.96875 C 16.941406 0.96875 13.84375 0.160156 11.09375 -1.453125 C 8.351562 -3.078125 6.195312 -5.28125 4.625 -8.0625 C 3.050781 -10.84375 2.265625 -13.984375 2.265625 -17.484375 C 2.265625 -20.972656 3.050781 -24.109375 4.625 -26.890625 C 6.195312 -29.679688 8.351562 -31.882812 11.09375 -33.5 C 13.84375 -35.113281 16.941406 -35.921875 20.390625 -35.921875 C 23.972656 -35.921875 27.125 -35.085938 29.84375 -33.421875 C 32.5625 -31.765625 34.675781 -29.554688 36.1875 -26.796875 C 37.695312 -24.035156 38.453125 -20.972656 38.453125 -17.609375 Z M 20.390625 -27.90625 C 18.273438 -27.90625 16.492188 -27.320312 15.046875 -26.15625 C 13.597656 -24.988281 12.617188 -23.367188 12.109375 -21.296875 L 29 -21.296875 C 27.613281 -25.703125 24.742188 -27.90625 20.390625 -27.90625 Z M 20.390625 -27.90625 "/></g></g></g><g fill="#2e9841" fill-opacity="1"><g transform="translate(72.199824, 211.747935)"><g><path d="M 16.953125 0.96875 C 14.023438 0.96875 11.457031 0.453125 9.25 -0.578125 C 7.050781 -1.617188 5.335938 -3.078125 4.109375 -4.953125 C 2.878906 -6.828125 2.265625 -9.015625 2.265625 -11.515625 L 11.453125 -11.515625 C 11.492188 -9.960938 12.054688 -8.796875 13.140625 -8.015625 C 14.222656 -7.242188 15.601562 -6.859375 17.28125 -6.859375 C 18.625 -6.859375 19.789062 -7.148438 20.78125 -7.734375 C 21.769531 -8.316406 22.265625 -9.191406 22.265625 -10.359375 C 22.265625 -11.566406 21.601562 -12.414062 20.28125 -12.90625 C 18.96875 -13.40625 17.382812 -13.804688 15.53125 -14.109375 C 14.15625 -14.328125 12.722656 -14.628906 11.234375 -15.015625 C 9.742188 -15.398438 8.375 -15.957031 7.125 -16.6875 C 5.875 -17.425781 4.847656 -18.441406 4.046875 -19.734375 C 3.242188 -21.035156 2.84375 -22.722656 2.84375 -24.796875 C 2.84375 -26.992188 3.4375 -28.929688 4.625 -30.609375 C 5.8125 -32.296875 7.453125 -33.601562 9.546875 -34.53125 C 11.640625 -35.457031 14.109375 -35.921875 16.953125 -35.921875 C 19.765625 -35.921875 22.21875 -35.4375 24.3125 -34.46875 C 26.40625 -33.5 28.03125 -32.140625 29.1875 -30.390625 C 30.351562 -28.640625 30.9375 -26.601562 30.9375 -24.28125 L 21.9375 -24.28125 C 21.9375 -25.65625 21.472656 -26.6875 20.546875 -27.375 C 19.617188 -28.070312 18.335938 -28.421875 16.703125 -28.421875 C 15.234375 -28.421875 14.085938 -28.109375 13.265625 -27.484375 C 12.453125 -26.859375 12.046875 -26.046875 12.046875 -25.046875 C 12.046875 -23.878906 12.691406 -23.082031 13.984375 -22.65625 C 15.273438 -22.226562 16.828125 -21.863281 18.640625 -21.5625 C 20.066406 -21.300781 21.535156 -20.984375 23.046875 -20.609375 C 24.554688 -20.242188 25.957031 -19.691406 27.25 -18.953125 C 28.539062 -18.222656 29.585938 -17.210938 30.390625 -15.921875 C 31.191406 -14.628906 31.59375 -12.925781 31.59375 -10.8125 C 31.59375 -8.4375 30.988281 -6.363281 29.78125 -4.59375 C 28.570312 -2.820312 26.863281 -1.453125 24.65625 -0.484375 C 22.457031 0.484375 19.890625 0.96875 16.953125 0.96875 Z M 16.953125 0.96875 "/></g></g></g><g fill="#2e9841" fill-opacity="1"><g transform="translate(102.487091, 211.747935)"><g><path d="M 20.78125 0.96875 C 17.28125 0.96875 14.128906 0.148438 11.328125 -1.484375 C 8.523438 -3.128906 6.3125 -5.351562 4.6875 -8.15625 C 3.070312 -10.957031 2.265625 -14.109375 2.265625 -17.609375 C 2.265625 -21.097656 3.070312 -24.222656 4.6875 -26.984375 C 6.3125 -29.753906 8.523438 -31.9375 11.328125 -33.53125 C 14.128906 -35.125 17.300781 -35.921875 20.84375 -35.921875 C 23.863281 -35.921875 26.613281 -35.328125 29.09375 -34.140625 C 31.582031 -32.960938 33.65625 -31.289062 35.3125 -29.125 C 36.976562 -26.96875 38.085938 -24.46875 38.640625 -21.625 L 29.265625 -21.625 C 28.484375 -23.34375 27.347656 -24.675781 25.859375 -25.625 C 24.367188 -26.582031 22.675781 -27.0625 20.78125 -27.0625 C 19.09375 -27.0625 17.566406 -26.640625 16.203125 -25.796875 C 14.847656 -24.953125 13.78125 -23.816406 13 -22.390625 C 12.226562 -20.972656 11.84375 -19.359375 11.84375 -17.546875 C 11.84375 -15.734375 12.226562 -14.101562 13 -12.65625 C 13.78125 -11.207031 14.847656 -10.050781 16.203125 -9.1875 C 17.566406 -8.320312 19.09375 -7.890625 20.78125 -7.890625 C 22.71875 -7.890625 24.410156 -8.394531 25.859375 -9.40625 C 27.304688 -10.425781 28.441406 -11.882812 29.265625 -13.78125 L 38.78125 -13.78125 C 38.21875 -10.851562 37.09375 -8.273438 35.40625 -6.046875 C 33.726562 -3.828125 31.632812 -2.101562 29.125 -0.875 C 26.625 0.351562 23.84375 0.96875 20.78125 0.96875 Z M 20.78125 0.96875 "/></g></g></g><g fill="#2e9841" fill-opacity="1"><g transform="translate(139.246275, 211.747935)"><g><path d="M 20.515625 0.96875 C 17.234375 0.96875 14.351562 0.3125 11.875 -1 C 9.394531 -2.320312 7.472656 -4.15625 6.109375 -6.5 C 4.753906 -8.851562 4.078125 -11.609375 4.078125 -14.765625 L 4.078125 -34.953125 L 13.53125 -34.953125 L 13.53125 -15.859375 C 13.53125 -13.359375 14.144531 -11.40625 15.375 -10 C 16.601562 -8.59375 18.316406 -7.890625 20.515625 -7.890625 C 22.722656 -7.890625 24.429688 -8.601562 25.640625 -10.03125 C 26.847656 -11.457031 27.453125 -13.398438 27.453125 -15.859375 L 27.453125 -34.953125 L 36.90625 -34.953125 L 36.90625 -14.765625 C 36.90625 -11.609375 36.222656 -8.851562 34.859375 -6.5 C 33.503906 -4.15625 31.59375 -2.320312 29.125 -1 C 26.664062 0.3125 23.796875 0.96875 20.515625 0.96875 Z M 20.515625 0.96875 "/></g></g></g><g fill="#2e9841" fill-opacity="1"><g transform="translate(176.523216, 211.747935)"><g><path d="M 38.453125 -17.609375 C 38.453125 -16.703125 38.390625 -15.773438 38.265625 -14.828125 L 11.84375 -14.828125 C 12.226562 -12.453125 13.175781 -10.625 14.6875 -9.34375 C 16.195312 -8.070312 18.097656 -7.4375 20.390625 -7.4375 C 22.023438 -7.4375 23.488281 -7.789062 24.78125 -8.5 C 26.082031 -9.21875 27.078125 -10.203125 27.765625 -11.453125 L 37.734375 -11.453125 C 36.441406 -7.660156 34.238281 -4.640625 31.125 -2.390625 C 28.019531 -0.148438 24.441406 0.96875 20.390625 0.96875 C 16.941406 0.96875 13.84375 0.160156 11.09375 -1.453125 C 8.351562 -3.078125 6.195312 -5.28125 4.625 -8.0625 C 3.050781 -10.84375 2.265625 -13.984375 2.265625 -17.484375 C 2.265625 -20.972656 3.050781 -24.109375 4.625 -26.890625 C 6.195312 -29.679688 8.351562 -31.882812 11.09375 -33.5 C 13.84375 -35.113281 16.941406 -35.921875 20.390625 -35.921875 C 23.972656 -35.921875 27.125 -35.085938 29.84375 -33.421875 C 32.5625 -31.765625 34.675781 -29.554688 36.1875 -26.796875 C 37.695312 -24.035156 38.453125 -20.972656 38.453125 -17.609375 Z M 20.390625 -27.90625 C 18.273438 -27.90625 16.492188 -27.320312 15.046875 -26.15625 C 13.597656 -24.988281 12.617188 -23.367188 12.109375 -21.296875 L 29 -21.296875 C 27.613281 -25.703125 24.742188 -27.90625 20.390625 -27.90625 Z M 20.390625 -27.90625 "/></g></g></g><g fill="#020202" fill-opacity="1"><g transform="translate(223.165567, 212.24122)"><g><path d="M 31.65625 -39.9375 L 11.84375 -39.9375 L 11.84375 -24.984375 L 29.96875 -24.984375 L 29.96875 -19.671875 L 11.84375 -19.671875 L 11.84375 0 L 6.21875 0 L 6.21875 -45.3125 L 31.65625 -45.3125 Z M 31.65625 -39.9375 "/></g></g></g><g fill="#020202" fill-opacity="1"><g transform="translate(253.331287, 212.24122)"><g><path d="M 21.296875 0.78125 C 17.753906 0.78125 14.59375 -0.015625 11.8125 -1.609375 C 9.03125 -3.210938 6.828125 -5.382812 5.203125 -8.125 C 3.585938 -10.863281 2.78125 -13.984375 2.78125 -17.484375 C 2.78125 -20.972656 3.585938 -24.097656 5.203125 -26.859375 C 6.828125 -29.617188 9.03125 -31.785156 11.8125 -33.359375 C 14.59375 -34.941406 17.753906 -35.734375 21.296875 -35.734375 C 24.835938 -35.734375 28.007812 -34.929688 30.8125 -33.328125 C 33.613281 -31.734375 35.820312 -29.566406 37.4375 -26.828125 C 39.0625 -24.085938 39.875 -20.972656 39.875 -17.484375 C 39.875 -13.984375 39.0625 -10.863281 37.4375 -8.125 C 35.820312 -5.382812 33.613281 -3.210938 30.8125 -1.609375 C 28.007812 -0.015625 24.835938 0.78125 21.296875 0.78125 Z M 21.296875 -4.53125 C 23.796875 -4.53125 26.015625 -5.085938 27.953125 -6.203125 C 29.898438 -7.328125 31.4375 -8.859375 32.5625 -10.796875 C 33.6875 -12.742188 34.25 -14.972656 34.25 -17.484375 C 34.25 -19.984375 33.6875 -22.203125 32.5625 -24.140625 C 31.4375 -26.085938 29.898438 -27.617188 27.953125 -28.734375 C 26.015625 -29.859375 23.796875 -30.421875 21.296875 -30.421875 C 18.796875 -30.421875 16.570312 -29.859375 14.625 -28.734375 C 12.6875 -27.617188 11.164062 -26.085938 10.0625 -24.140625 C 8.96875 -22.203125 8.421875 -19.984375 8.421875 -17.484375 C 8.421875 -14.972656 8.96875 -12.742188 10.0625 -10.796875 C 11.164062 -8.859375 12.695312 -7.328125 14.65625 -6.203125 C 16.625 -5.085938 18.835938 -4.53125 21.296875 -4.53125 Z M 21.296875 -4.53125 "/></g></g></g><g fill="#020202" fill-opacity="1"><g transform="translate(292.300845, 212.24122)"><g><path d="M 21.296875 0.78125 C 17.753906 0.78125 14.59375 -0.015625 11.8125 -1.609375 C 9.03125 -3.210938 6.828125 -5.382812 5.203125 -8.125 C 3.585938 -10.863281 2.78125 -13.984375 2.78125 -17.484375 C 2.78125 -20.972656 3.585938 -24.097656 5.203125 -26.859375 C 6.828125 -29.617188 9.03125 -31.785156 11.8125 -33.359375 C 14.59375 -34.941406 17.753906 -35.734375 21.296875 -35.734375 C 24.835938 -35.734375 28.007812 -34.929688 30.8125 -33.328125 C 33.613281 -31.734375 35.820312 -29.566406 37.4375 -26.828125 C 39.0625 -24.085938 39.875 -20.972656 39.875 -17.484375 C 39.875 -13.984375 39.0625 -10.863281 37.4375 -8.125 C 35.820312 -5.382812 33.613281 -3.210938 30.8125 -1.609375 C 28.007812 -0.015625 24.835938 0.78125 21.296875 0.78125 Z M 21.296875 -4.53125 C 23.796875 -4.53125 26.015625 -5.085938 27.953125 -6.203125 C 29.898438 -7.328125 31.4375 -8.859375 32.5625 -10.796875 C 33.6875 -12.742188 34.25 -14.972656 34.25 -17.484375 C 34.25 -19.984375 33.6875 -22.203125 32.5625 -24.140625 C 31.4375 -26.085938 29.898438 -27.617188 27.953125 -28.734375 C 26.015625 -29.859375 23.796875 -30.421875 21.296875 -30.421875 C 18.796875 -30.421875 16.570312 -29.859375 14.625 -28.734375 C 12.6875 -27.617188 11.164062 -26.085938 10.0625 -24.140625 C 8.96875 -22.203125 8.421875 -19.984375 8.421875 -17.484375 C 8.421875 -14.972656 8.96875 -12.742188 10.0625 -10.796875 C 11.164062 -8.859375 12.695312 -7.328125 14.65625 -6.203125 C 16.625 -5.085938 18.835938 -4.53125 21.296875 -4.53125 Z M 21.296875 -4.53125 "/></g></g></g><g fill="#020202" fill-opacity="1"><g transform="translate(331.2704, 212.24122)"><g><path d="M 33.734375 -47.453125 L 39.234375 -47.453125 L 39.234375 0 L 35.015625 0 L 34.25 -4.984375 C 32.644531 -3.171875 30.6875 -1.753906 28.375 -0.734375 C 26.070312 0.273438 23.5625 0.78125 20.84375 0.78125 C 17.300781 0.78125 14.179688 -0.015625 11.484375 -1.609375 C 8.785156 -3.210938 6.660156 -5.394531 5.109375 -8.15625 C 3.554688 -10.914062 2.78125 -14.023438 2.78125 -17.484375 C 2.78125 -20.972656 3.554688 -24.085938 5.109375 -26.828125 C 6.660156 -29.566406 8.785156 -31.734375 11.484375 -33.328125 C 14.179688 -34.929688 17.300781 -35.734375 20.84375 -35.734375 C 23.4375 -35.734375 25.832031 -35.269531 28.03125 -34.34375 C 30.226562 -33.414062 32.128906 -32.148438 33.734375 -30.546875 Z M 21.234375 -4.53125 C 23.691406 -4.53125 25.890625 -5.101562 27.828125 -6.25 C 29.773438 -7.394531 31.304688 -8.9375 32.421875 -10.875 C 33.546875 -12.8125 34.109375 -15.015625 34.109375 -17.484375 C 34.109375 -19.941406 33.546875 -22.140625 32.421875 -24.078125 C 31.304688 -26.023438 29.773438 -27.566406 27.828125 -28.703125 C 25.890625 -29.847656 23.691406 -30.421875 21.234375 -30.421875 C 18.773438 -30.421875 16.570312 -29.859375 14.625 -28.734375 C 12.6875 -27.617188 11.164062 -26.078125 10.0625 -24.109375 C 8.96875 -22.148438 8.421875 -19.941406 8.421875 -17.484375 C 8.421875 -15.015625 8.96875 -12.796875 10.0625 -10.828125 C 11.164062 -8.867188 12.6875 -7.328125 14.625 -6.203125 C 16.570312 -5.085938 18.773438 -4.53125 21.234375 -4.53125 Z M 21.234375 -4.53125 "/></g></g></g><g clip-path="url(#0d8e253993)"><g clip-path="url(#df4578092e)"><path fill="#ffffff" d="M 265.253906 196.492188 L 273.632812 204.382812 L 262.628906 216.066406 L 254.25 208.175781 Z M 265.253906 196.492188 " fill-opacity="1" fill-rule="nonzero"/></g></g><g clip-path="url(#5c7ef2f21c)"><g clip-path="url(#a59d57e9b1)"><path fill="#2e9841" d="M 261.574219 182.246094 L 288.175781 182.246094 L 288.175781 208.847656 L 261.574219 208.847656 Z M 261.574219 182.246094 " fill-opacity="1" fill-rule="nonzero"/></g></g><g clip-path="url(#45d98fc0c8)"><path fill="#000000" d="M 274.410156 203.207031 C 276.148438 201.464844 281.445312 195.707031 281.445312 195.707031 C 281.445312 195.707031 281.070312 195.132812 280.160156 194.089844 L 274.324219 199.925781 C 273.996094 200.253906 273.472656 200.253906 273.148438 199.925781 C 272.824219 199.601562 272.824219 199.078125 273.148438 198.75 L 279.042969 192.859375 C 278.808594 192.613281 278.554688 192.355469 278.28125 192.078125 C 277.980469 191.777344 277.695312 191.507812 277.429688 191.253906 L 271.59375 197.089844 C 271.265625 197.414062 270.742188 197.414062 270.421875 197.089844 C 270.09375 196.765625 270.09375 196.242188 270.417969 195.914062 L 276.199219 190.136719 C 275.175781 189.246094 274.605469 188.863281 274.605469 188.863281 C 274.605469 188.863281 269.734375 193.234375 267.085938 195.882812 C 264.132812 198.835938 266.8125 201.554688 265.648438 202.71875 C 264.488281 203.878906 259.164062 208.191406 256.445312 210.914062 C 251.457031 215.898438 252 216.671875 252.808594 217.480469 C 253.617188 218.292969 254.390625 218.832031 259.378906 213.84375 C 262.097656 211.128906 266.410156 205.804688 267.570312 204.644531 C 268.734375 203.480469 271.410156 206.199219 274.410156 203.207031 Z M 274.410156 203.207031 " fill-opacity="1" fill-rule="nonzero"/></g></svg>